<svg width="123" height="44" viewBox="0 0 123 44" fill="none" xmlns="http://www.w3.org/2000/svg">
<g clip-path="url(#clip0_2920_19302)">
<path d="M17.4903 21.196V1L0 11.098L17.4903 21.196Z" fill="#E8355C"/>
<path d="M17.4903 41.3921V21.196L0 31.2941L17.4903 41.3921Z" fill="#C02B6C"/>
<path d="M0.00634766 11.0979L0.00635871 31.2939L17.4966 21.1959L0.00634766 11.0979Z" fill="#AD2771"/>
<path d="M17.5098 21.196V41.3921L35.0001 31.2941L17.5098 21.196Z" fill="#EB3952"/>
<path d="M17.5098 1V21.196L35.0001 11.098L17.5098 1Z" fill="#F8CD6D"/>
<path d="M34.9936 31.2942V11.0981L17.5034 21.1962L34.9936 31.2942Z" fill="#F19537"/>
<path d="M47.304 9.344H56.072C57.224 9.344 58.312 9.46133 59.336 9.696C60.3813 9.90933 61.288 10.2827 62.056 10.816C62.8453 11.328 63.464 12.032 63.912 12.928C64.3813 13.8027 64.616 14.9013 64.616 16.224C64.616 17.824 64.2 19.1893 63.368 20.32C62.536 21.4293 61.32 22.1333 59.72 22.432L65.48 32H59.496L54.76 22.944H52.296V32H47.304V9.344ZM52.296 18.72H55.24C55.688 18.72 56.1573 18.7093 56.648 18.688C57.16 18.6453 57.6187 18.5493 58.024 18.4C58.4293 18.2293 58.76 17.9733 59.016 17.632C59.2933 17.2907 59.432 16.8107 59.432 16.192C59.432 15.616 59.3147 15.1573 59.08 14.816C58.8453 14.4747 58.5467 14.2187 58.184 14.048C57.8213 13.856 57.4053 13.728 56.936 13.664C56.4667 13.6 56.008 13.568 55.56 13.568H52.296V18.72ZM82.422 32H77.814V29.888H77.75C77.5793 30.1867 77.3553 30.4853 77.078 30.784C76.822 31.0827 76.502 31.3493 76.118 31.584C75.734 31.8187 75.2967 32.0107 74.806 32.16C74.3153 32.3093 73.782 32.384 73.206 32.384C71.99 32.384 70.998 32.2027 70.23 31.84C69.4833 31.456 68.8967 30.9333 68.47 30.272C68.0647 29.6107 67.7873 28.832 67.638 27.936C67.51 27.04 67.446 26.0693 67.446 25.024V16.448H72.246V24.064C72.246 24.512 72.2567 24.9813 72.278 25.472C72.3207 25.9413 72.4167 26.3787 72.566 26.784C72.7367 27.1893 72.982 27.52 73.302 27.776C73.6433 28.032 74.1233 28.16 74.742 28.16C75.3607 28.16 75.862 28.0533 76.246 27.84C76.63 27.6053 76.918 27.3067 77.11 26.944C77.3233 26.56 77.462 26.1333 77.526 25.664C77.59 25.1947 77.622 24.704 77.622 24.192V16.448H82.422V32ZM86.269 7.808H91.069V18.112H91.133C91.6877 17.3653 92.3917 16.8427 93.245 16.544C94.1197 16.224 95.0583 16.064 96.061 16.064C97.1703 16.064 98.1623 16.2987 99.037 16.768C99.9117 17.216 100.648 17.824 101.245 18.592C101.864 19.36 102.333 20.2453 102.653 21.248C102.994 22.2293 103.165 23.264 103.165 24.352C103.165 25.5253 102.984 26.6027 102.621 27.584C102.258 28.5653 101.736 29.4187 101.053 30.144C100.392 30.848 99.5917 31.4027 98.653 31.808C97.7143 32.192 96.669 32.384 95.517 32.384C94.9623 32.384 94.4397 32.3093 93.949 32.16C93.4583 32.0107 92.9997 31.8187 92.573 31.584C92.1677 31.3493 91.805 31.0933 91.485 30.816C91.1863 30.5173 90.941 30.2293 90.749 29.952H90.685V32H86.269V7.808ZM90.685 24.224C90.685 25.3973 91.0157 26.3467 91.677 27.072C92.3597 27.7973 93.309 28.16 94.525 28.16C95.741 28.16 96.6797 27.7973 97.341 27.072C98.0237 26.3467 98.365 25.3973 98.365 24.224C98.365 23.0507 98.0237 22.1013 97.341 21.376C96.6797 20.6507 95.741 20.288 94.525 20.288C93.309 20.288 92.3597 20.6507 91.677 21.376C91.0157 22.1013 90.685 23.0507 90.685 24.224ZM114.937 34.528C114.617 35.36 114.308 36.096 114.009 36.736C113.711 37.376 113.327 37.9093 112.857 38.336C112.409 38.784 111.833 39.1147 111.129 39.328C110.425 39.5627 109.497 39.68 108.345 39.68C107.108 39.68 105.913 39.488 104.761 39.104L105.401 35.168C106.127 35.488 106.873 35.648 107.641 35.648C108.175 35.648 108.612 35.584 108.953 35.456C109.295 35.3493 109.572 35.1787 109.785 34.944C110.02 34.7307 110.212 34.464 110.361 34.144C110.511 33.824 110.671 33.4507 110.841 33.024L111.193 32.128L104.377 16.448H109.561L113.561 26.72H113.625L117.049 16.448H121.977L114.937 34.528Z" fill="#2D292B"/>
</g>
<defs>
<clipPath id="clip0_2920_19302">
<rect width="123" height="44" fill="white"/>
</clipPath>
</defs>
</svg>
