<?xml version="1.0" encoding="utf-8"?>
<svg viewBox="0 0 170 30" fill="none"
  xmlns="http://www.w3.org/2000/svg">
  <path d="M12.9702 15.0002L12.9702 29.9453L25.926 22.4728L12.9702 15.0002Z" fill="#E8355C"/>
  <path d="M12.9702 0.0549269L12.9702 15L25.926 7.52747L12.9702 0.0549269Z" fill="#F8CD6D"/>
  <path d="M25.9209 22.4729L25.9209 7.52783L12.9651 15.0004L25.9209 22.4729Z" fill="#F19537"/>
  <path d="M12.9556 15.0002L12.9556 0.0551758L-0.000209536 7.52771L12.9556 15.0002Z" fill="#EB3952"/>
  <path d="M12.9556 29.9451L12.9556 15L-0.000209536 22.4725L12.9556 29.9451Z" fill="#C02B6C"/>
  <path d="M0.00488739 7.52758L0.00489296 22.4727L12.9607 15.0001L0.00488739 7.52758Z" fill="#AD2771"/>
  <path d="M36.9258 1.44578H45.1451C46.225 1.44578 47.2449 1.55623 48.2048 1.77711C49.1847 1.97791 50.0346 2.32932 50.7546 2.83132C51.4945 3.31325 52.0744 3.9759 52.4944 4.81928C52.9344 5.64257 53.1544 6.67671 53.1544 7.92169C53.1544 9.42771 52.7644 10.7129 51.9845 11.7771C51.2045 12.8213 50.0646 13.4839 48.5648 13.7651L53.9643 22.7711H48.3548L43.9152 14.247H41.6054V22.7711H36.9258V1.44578ZM41.6054 10.2711H44.3651C44.7851 10.2711 45.225 10.261 45.685 10.241C46.165 10.2008 46.5949 10.1104 46.9749 9.96988C47.3549 9.80924 47.6648 9.56827 47.9048 9.24699C48.1648 8.9257 48.2948 8.4739 48.2948 7.89157C48.2948 7.3494 48.1848 6.91767 47.9648 6.59639C47.7448 6.2751 47.4649 6.03414 47.1249 5.87349C46.7849 5.69277 46.3949 5.57229 45.955 5.51205C45.515 5.45181 45.0851 5.42169 44.6651 5.42169H41.6054V10.2711Z" fill="#1D1A1B"/>
  <path d="M69.846 22.7711H65.5264V20.7831H65.4664C65.3064 21.0643 65.0964 21.3454 64.8364 21.6265C64.5965 21.9076 64.2965 22.1586 63.9365 22.3795C63.5766 22.6004 63.1666 22.7811 62.7066 22.9217C62.2467 23.0623 61.7467 23.1325 61.2068 23.1325C60.0669 23.1325 59.1369 22.9618 58.417 22.6205C57.7171 22.259 57.1671 21.7671 56.7672 21.1446C56.3872 20.5221 56.1272 19.7892 55.9872 18.9458C55.8672 18.1024 55.8072 17.1888 55.8072 16.2048V8.13253H60.3068V15.3012C60.3068 15.7229 60.3168 16.1647 60.3368 16.6265C60.3768 17.0683 60.4668 17.4799 60.6068 17.8614C60.7668 18.243 60.9968 18.5542 61.2968 18.7952C61.6167 19.0361 62.0667 19.1566 62.6466 19.1566C63.2266 19.1566 63.6965 19.0562 64.0565 18.8554C64.4165 18.6345 64.6865 18.3534 64.8664 18.0121C65.0664 17.6506 65.1964 17.249 65.2564 16.8072C65.3164 16.3655 65.3464 15.9036 65.3464 15.4217V8.13253H69.846V22.7711Z" fill="#1D1A1B"/>
  <path d="M73.4522 0H77.9519V9.6988H78.0118C78.5318 8.99598 79.1917 8.50402 79.9917 8.22289C80.8116 7.92169 81.6915 7.77108 82.6314 7.77108C83.6713 7.77108 84.6013 7.99197 85.4212 8.43374C86.2411 8.85542 86.9311 9.42771 87.491 10.1506C88.071 10.8735 88.5109 11.7068 88.8109 12.6506C89.1309 13.5743 89.2909 14.5482 89.2909 15.5723C89.2909 16.6767 89.1209 17.6908 88.7809 18.6145C88.4409 19.5382 87.951 20.3414 87.311 21.0241C86.6911 21.6867 85.9411 22.2088 85.0612 22.5904C84.1813 22.9518 83.2014 23.1325 82.1215 23.1325C81.6015 23.1325 81.1116 23.0623 80.6516 22.9217C80.1917 22.7811 79.7617 22.6004 79.3617 22.3795C78.9818 22.1586 78.6418 21.9177 78.3418 21.6566C78.0618 21.3755 77.8319 21.1044 77.6519 20.8434H77.5919V22.7711H73.4522V0ZM77.5919 15.4518C77.5919 16.5562 77.9019 17.4498 78.5218 18.1325C79.1617 18.8153 80.0517 19.1566 81.1916 19.1566C82.3315 19.1566 83.2114 18.8153 83.8313 18.1325C84.4713 17.4498 84.7912 16.5562 84.7912 15.4518C84.7912 14.3474 84.4713 13.4538 83.8313 12.7711C83.2114 12.0884 82.3315 11.747 81.1916 11.747C80.0517 11.747 79.1617 12.0884 78.5218 12.7711C77.9019 13.4538 77.5919 14.3474 77.5919 15.4518Z" fill="#1D1A1B"/>
  <path d="M100.326 25.1506C100.026 25.9337 99.7364 26.6265 99.4564 27.2289C99.1765 27.8313 98.8165 28.3333 98.3765 28.7349C97.9566 29.1566 97.4166 29.4679 96.7567 29.6687C96.0967 29.8896 95.2268 30 94.1469 30C92.987 30 91.8671 29.8193 90.7872 29.4578L91.3872 25.753C92.0671 26.0542 92.767 26.2048 93.487 26.2048C93.9869 26.2048 94.3969 26.1446 94.7169 26.0241C95.0368 25.9237 95.2968 25.7631 95.4968 25.5422C95.7168 25.3414 95.8968 25.0904 96.0367 24.7892C96.1767 24.488 96.3267 24.1365 96.4867 23.7349L96.8167 22.8916L90.4272 8.13253H95.2868L99.0365 17.8012H99.0965L102.306 8.13253H106.926L100.326 25.1506Z" fill="#1D1A1B"/>
  <path d="M110.926 23V0.310212H120.202C121.906 0.310212 123.328 0.557643 124.467 1.05251C125.606 1.54737 126.462 2.23427 127.035 3.1132C127.608 3.98475 127.894 4.98924 127.894 6.12669C127.894 7.01301 127.713 7.79223 127.351 8.46436C126.989 9.1291 126.492 9.67566 125.858 10.104C125.232 10.525 124.516 10.8242 123.709 11.0014V11.223C124.591 11.26 125.417 11.5037 126.186 11.9542C126.963 12.4048 127.593 13.0363 128.075 13.8487C128.558 14.6538 128.799 15.614 128.799 16.7293C128.799 17.9332 128.494 19.0079 127.883 19.9533C127.28 20.8913 126.386 21.6336 125.202 22.1802C124.018 22.7267 122.559 23 120.824 23H110.926ZM115.824 19.078H119.817C121.182 19.078 122.178 18.8232 122.804 18.3136C123.43 17.7966 123.743 17.1097 123.743 16.2529C123.743 15.6251 123.588 15.0711 123.279 14.591C122.97 14.111 122.529 13.7343 121.955 13.461C121.39 13.1877 120.715 13.0511 119.93 13.0511H115.824V19.078ZM115.824 9.80491H119.455C120.127 9.80491 120.722 9.69043 121.243 9.46146C121.771 9.22511 122.185 8.89274 122.487 8.46436C122.796 8.03597 122.951 7.52264 122.951 6.92437C122.951 6.10453 122.653 5.44348 122.057 4.94123C121.469 4.43898 120.632 4.18786 119.546 4.18786H115.824V9.80491Z" fill="#93101C"/>
  <path d="M131.851 23V19.5434L140.098 12.065C140.799 11.4003 141.387 10.802 141.862 10.2702C142.345 9.73844 142.711 9.21773 142.96 8.70809C143.209 8.19107 143.333 7.63343 143.333 7.03516C143.333 6.37042 143.178 5.79801 142.869 5.31792C142.56 4.83044 142.138 4.45745 141.602 4.19894C141.067 3.93304 140.46 3.8001 139.781 3.8001C139.072 3.8001 138.454 3.94043 137.926 4.2211C137.398 4.50177 136.991 4.9043 136.704 5.42871C136.417 5.95311 136.274 6.57723 136.274 7.30106H131.625C131.625 5.81647 131.968 4.52762 132.654 3.43449C133.34 2.34136 134.302 1.49567 135.539 0.897398C136.776 0.299133 138.201 0 139.815 0C141.474 0 142.918 0.288054 144.148 0.864162C145.384 1.43288 146.346 2.22319 147.032 3.23507C147.719 4.24695 148.062 5.40655 148.062 6.71387C148.062 7.57065 147.888 8.41635 147.541 9.25096C147.202 10.0856 146.595 11.0125 145.72 12.0318C144.845 13.0437 143.612 14.2587 142.021 15.6768L138.638 18.9229V19.078H148.367V23H131.851Z" fill="#93101C"/>
  <path d="M152.052 23V0.310212H161.328C163.033 0.310212 164.454 0.557643 165.593 1.05251C166.732 1.54737 167.588 2.23427 168.161 3.1132C168.734 3.98475 169.021 4.98924 169.021 6.12669C169.021 7.01301 168.84 7.79223 168.478 8.46436C168.116 9.1291 167.618 9.67566 166.985 10.104C166.359 10.525 165.642 10.8242 164.835 11.0014V11.223C165.718 11.26 166.543 11.5037 167.313 11.9542C168.089 12.4048 168.719 13.0363 169.202 13.8487C169.684 14.6538 169.926 15.614 169.926 16.7293C169.926 17.9332 169.62 19.0079 169.009 19.9533C168.406 20.8913 167.512 21.6336 166.328 22.1802C165.144 22.7267 163.685 23 161.951 23H152.052ZM156.95 19.078H160.944C162.309 19.078 163.304 18.8232 163.93 18.3136C164.556 17.7966 164.869 17.1097 164.869 16.2529C164.869 15.6251 164.715 15.0711 164.405 14.591C164.096 14.111 163.655 13.7343 163.082 13.461C162.516 13.1877 161.841 13.0511 161.057 13.0511H156.95V19.078ZM156.95 9.80491H160.582C161.253 9.80491 161.849 9.69043 162.369 9.46146C162.897 9.22511 163.312 8.89274 163.613 8.46436C163.923 8.03597 164.077 7.52264 164.077 6.92437C164.077 6.10453 163.779 5.44348 163.184 4.94123C162.595 4.43898 161.758 4.18786 160.672 4.18786H156.95V9.80491Z" fill="#93101C"/>
</svg>
