<?xml version="1.0" standalone="no"?>
<!DOCTYPE svg PUBLIC "-//W3C//DTD SVG 20010904//EN" "http://www.w3.org/TR/2001/REC-SVG-20010904/DTD/svg10.dtd">
<svg version="1.0" xmlns="http://www.w3.org/2000/svg" width="1862.000000pt" height="776.000000pt"
  viewBox="0 0 1862.000000 776.000000" style="background-color:white" preserveAspectRatio="xMidYMid meet">

  <g transform="translate(0.000000,776.000000) scale(0.100000,-0.100000)" fill="#000000" stroke="none">
    <path d="M2076 7150 c-38 -12 -65 -38 -85 -80 -13 -29 -16 -79 -17 -295 -1
-143 3 -276 7 -296 14 -57 50 -102 93 -117 51 -16 5369 -18 5431 -1 53 14 100
61 114 112 7 27 10 135 9 307 -3 244 -5 268 -23 299 -11 19 -33 43 -48 55
l-28 21 -2712 2 c-1492 1 -2725 -3 -2741 -7z m5465 -26 c65 -38 69 -57 69
-359 0 -315 -5 -336 -82 -377 l-43 -23 -2230 -3 c-1227 -1 -2435 1 -2685 5
-450 8 -456 8 -503 32 -76 37 -77 41 -77 344 0 212 3 272 16 309 28 84 23 82
303 89 135 3 1360 5 2722 4 2436 -2 2477 -2 2510 -21z m-5451 -752 c-9 -3 -70
25 -70 33 0 2 18 -4 40 -13 21 -9 35 -18 30 -20z" />
    <path d="M4962 6778 c-14 -14 -16 -78 -2 -78 6 0 10 16 10 35 0 24 5 35 14 35
27 0 46 -12 46 -30 0 -23 17 -36 58 -45 20 -4 32 -3 32 4 0 6 -10 11 -22 11
-33 0 -52 15 -44 35 4 13 13 15 32 11 19 -5 25 -3 22 6 -3 8 -21 13 -46 13
-22 0 -44 3 -48 8 -11 11 -39 8 -52 -5z" />
    <path d="M4378 6755 c-9 -21 -9 -28 3 -39 19 -19 79 -31 79 -17 0 6 -10 11
-22 11 -33 0 -52 15 -44 35 4 13 13 15 32 11 19 -5 25 -3 22 6 -3 7 -17 14
-31 16 -21 3 -30 -3 -39 -23z" />
    <path d="M4486 6767 c-21 -16 -18 -45 6 -61 23 -14 72 4 76 29 4 20 -22 45
-48 45 -9 0 -24 -6 -34 -13z m69 -26 c0 -17 -37 -32 -55 -21 -7 4 -10 15 -7
25 8 20 62 17 62 -4z" />
    <path d="M4860 6760 c-11 -11 -20 -29 -20 -40 0 -27 42 -53 74 -44 38 9 32 24
-8 17 -28 -4 -36 -1 -45 16 -11 19 -9 21 23 21 36 0 53 19 33 39 -16 16 -34
14 -57 -9z m45 -10 c-3 -5 -13 -10 -21 -10 -8 0 -12 5 -9 10 3 6 13 10 21 10
8 0 12 -4 9 -10z" />
    <path d="M5151 6754 c-26 -33 -26 -39 0 -65 14 -14 28 -19 42 -15 12 3 28 6
35 6 6 0 12 4 12 10 0 5 -13 7 -30 4 -29 -6 -60 8 -60 27 0 4 15 9 33 11 24 2
32 8 32 23 0 31 -39 31 -64 -1z m49 -4 c0 -5 -7 -10 -15 -10 -8 0 -15 5 -15
10 0 6 7 10 15 10 8 0 15 -4 15 -10z" />
    <path d="M4666 6762 c-3 -6 -22 -9 -41 -8 -33 3 -35 1 -35 -27 0 -24 3 -27 14
-18 7 6 21 9 30 5 10 -4 18 0 22 10 8 20 24 21 24 2 0 -8 5 -18 11 -22 9 -5
10 1 5 22 -9 34 -21 50 -30 36z" />
    <path d="M4790 6762 c0 -6 -18 -8 -40 -6 -37 3 -40 2 -40 -21 0 -26 15 -41 25
-26 3 6 12 8 19 5 7 -3 19 2 26 11 12 15 15 14 27 -7 13 -22 13 -22 11 11 -2
19 -9 36 -15 39 -7 2 -13 -1 -13 -6z" />
    <path d="M10069 6658 c-11 -4 -17 -12 -14 -18 4 -6 1 -9 -6 -8 -7 2 -26 -19
-43 -46 l-31 -49 -3 -271 c-3 -266 -3 -272 20 -316 42 -82 53 -85 364 -88
l271 -3 -4 -87 c-2 -48 -10 -253 -18 -457 -23 -553 -26 -592 -41 -564 -7 13
-24 64 -38 113 -14 49 -28 91 -31 94 -15 15 -1 -45 34 -145 l38 -113 -104 0
c-173 0 -343 -47 -474 -131 -81 -52 -233 -207 -297 -303 -61 -92 -88 -170
-107 -312 -29 -214 -14 -383 46 -533 123 -308 473 -563 806 -588 150 -11 330
34 511 127 124 63 200 125 284 229 116 145 191 322 205 486 l6 70 698 4 c415
2 699 0 699 -5 0 -5 -36 -20 -80 -32 -91 -26 -154 -51 -148 -58 3 -2 31 5 64
16 32 12 89 29 125 40 l67 18 5 -196 c5 -225 12 -253 74 -322 79 -88 52 -84
679 -83 623 1 602 -2 676 81 67 74 71 103 76 497 3 290 1 363 -12 425 -22 103
-58 158 -126 193 -77 39 -144 47 -386 47 l-212 0 -11 44 c-6 25 -11 57 -11 73
l1 28 15 -25 15 -25 -4 28 -4 27 477 0 477 0 33 23 c19 12 43 38 54 57 20 33
21 51 21 262 l0 226 -25 27 c-14 15 -33 31 -42 36 -10 5 -429 12 -1003 15
l-987 5 -45 -22 c-72 -35 -83 -62 -83 -206 0 -109 -2 -123 -18 -132 -31 -16
-1164 -462 -1168 -459 -3 4 124 110 154 129 23 14 29 29 13 29 -6 0 -38 -25
-73 -56 -35 -30 -82 -67 -106 -81 -23 -14 -40 -29 -37 -33 3 -4 -3 -6 -12 -3
-10 3 -40 31 -66 63 -133 163 -435 327 -564 306 -18 -2 -33 -1 -33 4 0 15 46
132 69 179 12 23 19 46 15 52 -6 10 -25 -30 -76 -159 -12 -29 -22 -51 -24 -50
-3 4 10 238 37 692 11 193 19 369 17 393 l-3 43 3022 0 c2083 0 3038 3 3072
11 59 12 125 65 140 112 6 20 9 136 7 304 -4 302 -7 317 -73 356 -31 18 -146
18 -3378 20 -1840 1 -3355 -1 -3366 -5z m31 -8 c-8 -5 -19 -10 -25 -10 -5 0
-3 5 5 10 8 5 20 10 25 10 6 0 3 -5 -5 -10z m6651 0 c20 -6 44 -19 54 -30 10
-11 21 -17 26 -14 4 2 15 -6 23 -18 12 -19 14 -72 13 -315 -2 -331 -1 -327
-87 -371 l-44 -22 -3335 0 -3334 0 -37 38 -38 37 -1 275 c-2 337 3 360 94 401
38 17 163 18 2710 16 2295 -2 3897 2 3915 11 3 1 21 -3 41 -8z m-6114 -947
c-2 -21 -4 -6 -4 32 0 39 2 55 4 38 2 -18 2 -50 0 -70z m3993 -566 c13 -7 32
-24 43 -38 18 -25 19 -43 18 -240 -2 -241 -8 -267 -71 -301 -32 -17 -67 -18
-510 -18 -367 0 -479 3 -489 13 -11 10 -14 10 -18 0 -7 -18 -942 -18 -992 0
-62 22 -69 44 -72 207 -3 266 -1 293 24 331 12 18 34 39 47 46 35 18 1985 18
2020 0z m-2110 -419 c0 -98 18 -142 70 -173 34 -19 53 -20 518 -23 l484 -3 -6
-25 c-4 -16 -3 -23 3 -20 10 7 16 -7 25 -66 l7 -36 -273 -4 c-312 -5 -330 -8
-397 -85 -63 -71 -73 -111 -78 -325 -4 -143 -8 -188 -18 -188 -7 0 -65 22
-129 49 -64 27 -116 45 -116 41 0 -5 10 -12 22 -16 12 -3 51 -20 87 -36 49
-22 62 -31 51 -38 -9 -6 -294 -10 -672 -10 l-658 0 0 75 c0 122 -24 216 -88
345 -31 63 -58 118 -60 122 -2 5 65 9 150 10 l153 2 -117 5 c-64 3 -119 8
-122 11 -4 5 1133 466 1157 469 4 1 7 -36 7 -81z m-1940 -43 c9 -11 16 -12 25
-5 26 21 294 -54 382 -107 226 -136 368 -340 424 -608 23 -109 24 -179 4 -309
-30 -200 -103 -351 -234 -489 -131 -138 -265 -217 -444 -262 -49 -12 -85 -24
-79 -26 7 -2 -52 -5 -131 -7 -78 -2 -151 -5 -162 -8 -15 -4 -16 -3 -6 4 9 7
-1 12 -35 17 -72 10 -201 60 -285 109 -205 121 -352 301 -419 511 -30 95 -40
364 -17 472 9 39 14 82 11 95 -4 19 -3 20 4 4 7 -15 10 -11 21 25 34 115 151
293 244 373 130 111 305 195 448 216 100 14 235 12 249 -5z m176 5 c12 0 32
-9 45 -19 23 -19 22 -19 -56 0 -89 23 -111 34 -50 25 22 -3 50 -5 61 -6z m109
-40 c3 -5 -1 -10 -9 -10 -8 0 -18 5 -21 10 -3 6 1 10 9 10 8 0 18 -4 21 -10z
m3345 -316 c67 -31 107 -78 130 -152 18 -59 20 -94 20 -426 0 -365 -5 -418
-40 -486 -26 -51 -64 -80 -128 -100 -60 -19 -94 -20 -571 -20 -569 0 -578 1
-646 67 -71 69 -80 102 -83 322 -2 124 0 197 7 204 7 7 7 16 0 30 -7 12 -10
88 -7 206 3 176 5 189 29 242 30 64 67 94 145 119 49 15 114 16 577 16 508 -1
523 -2 567 -22z m-4540 -138 c-25 -51 -47 -92 -49 -90 -7 6 82 184 92 184 1 0
-18 -42 -43 -94z m953 -1333 c-7 -2 -21 -2 -30 0 -10 3 -4 5 12 5 17 0 24 -2
18 -5z m-95 -10 c-21 -2 -57 -2 -80 0 -24 2 -7 4 37 4 44 0 63 -2 43 -4z" />
    <path d="M16841 6580 c14 -31 19 -36 19 -24 0 6 -7 19 -16 30 -14 18 -14 18
-3 -6z" />
    <path d="M13592 6288 c-14 -14 -16 -78 -2 -78 6 0 10 16 10 35 0 24 5 35 14
35 27 0 46 -12 46 -30 0 -23 17 -36 58 -45 20 -4 32 -3 32 4 0 6 -10 11 -22
11 -33 0 -52 15 -44 35 4 13 13 15 32 11 19 -5 25 -3 22 6 -3 8 -21 13 -46 13
-22 0 -44 3 -48 8 -11 11 -39 8 -52 -5z" />
    <path d="M13008 6265 c-9 -21 -9 -28 3 -39 19 -19 79 -31 79 -17 0 6 -10 11
-22 11 -33 0 -52 15 -44 35 4 13 13 15 32 11 19 -5 25 -3 22 6 -3 7 -17 14
-31 16 -21 3 -30 -3 -39 -23z" />
    <path d="M13116 6277 c-21 -16 -18 -45 6 -61 23 -14 72 4 76 29 4 20 -22 45
-48 45 -9 0 -24 -6 -34 -13z m69 -26 c0 -17 -37 -32 -55 -21 -7 4 -10 15 -7
25 8 20 62 17 62 -4z" />
    <path d="M13490 6270 c-11 -11 -20 -29 -20 -40 0 -27 42 -53 74 -44 38 9 32
24 -8 17 -28 -4 -36 -1 -45 16 -11 19 -9 21 23 21 36 0 53 19 33 39 -16 16
-34 14 -57 -9z m45 -10 c-3 -5 -13 -10 -21 -10 -8 0 -12 5 -9 10 3 6 13 10 21
10 8 0 12 -4 9 -10z" />
    <path d="M13781 6264 c-26 -33 -26 -39 0 -65 14 -14 28 -19 42 -15 12 3 28 6
35 6 6 0 12 4 12 10 0 5 -13 7 -30 4 -29 -6 -60 8 -60 27 0 4 15 9 33 11 24 2
32 8 32 23 0 31 -39 31 -64 -1z m49 -4 c0 -5 -7 -10 -15 -10 -8 0 -15 5 -15
10 0 6 7 10 15 10 8 0 15 -4 15 -10z" />
    <path d="M13296 6272 c-3 -6 -22 -9 -41 -8 -33 3 -35 1 -35 -27 0 -24 3 -27
14 -18 7 6 21 9 30 5 10 -4 18 0 22 10 8 20 24 21 24 2 0 -8 5 -18 11 -22 9
-5 10 1 5 22 -9 34 -21 50 -30 36z" />
    <path d="M13420 6272 c0 -6 -18 -8 -40 -6 -37 3 -40 2 -40 -21 0 -26 15 -41
25 -26 3 6 12 8 19 5 7 -3 19 2 26 11 12 15 15 14 27 -7 13 -22 13 -22 11 11
-2 19 -9 36 -15 39 -7 2 -13 -1 -13 -6z" />
    <path d="M10000 5972 c0 -18 64 -82 82 -82 7 0 -2 10 -20 21 -18 12 -39 33
-47 48 -8 14 -14 20 -15 13z" />
    <path d="M14120 5002 c0 -51 3 -92 8 -92 9 0 8 167 -1 176 -4 4 -7 -34 -7 -84z" />
    <path d="M14280 5028 c0 -51 -19 -91 -43 -96 -26 -5 -21 27 6 38 22 9 22 9 1
9 -26 1 -47 -22 -42 -46 5 -25 36 -28 59 -7 18 17 20 17 35 -2 14 -18 15 -18
7 6 -4 14 -6 51 -5 83 2 35 -1 57 -7 57 -6 0 -11 -19 -11 -42z" />
    <path d="M12870 5028 c0 -9 -9 -20 -20 -23 -11 -3 -20 -11 -20 -16 0 -6 9 -8
19 -4 17 5 20 0 23 -37 2 -30 8 -44 19 -46 18 -3 54 27 43 37 -4 3 -9 0 -11
-6 -3 -7 -11 -13 -19 -13 -10 0 -14 12 -14 40 0 34 3 40 23 41 20 1 20 2 2 6
-11 3 -26 12 -32 21 -12 14 -13 14 -13 0z" />
    <path d="M13110 5025 c0 -9 -10 -20 -22 -25 -22 -8 -19 -12 12 -14 10 -1 16
-14 18 -39 2 -22 10 -41 18 -44 18 -7 44 14 44 35 0 13 -3 12 -14 -4 -19 -25
-39 -7 -34 32 2 20 10 30 28 35 l25 7 -27 1 c-18 1 -28 7 -28 16 0 8 -4 15
-10 15 -5 0 -10 -7 -10 -15z" />
    <path d="M13440 5028 c0 -9 -9 -20 -20 -23 -11 -3 -20 -11 -20 -16 0 -6 9 -8
19 -4 17 5 20 0 23 -37 2 -30 8 -44 19 -46 18 -3 54 27 43 37 -4 3 -9 0 -11
-6 -3 -7 -11 -13 -19 -13 -10 0 -14 12 -14 40 0 34 3 40 23 41 20 1 20 2 2 6
-11 3 -26 12 -32 21 -12 14 -13 14 -13 0z" />
    <path d="M14480 5026 c0 -8 -9 -18 -20 -21 -11 -3 -20 -11 -20 -16 0 -6 9 -7
20 -4 17 5 20 2 20 -27 0 -44 13 -62 38 -54 21 7 39 36 22 36 -6 0 -10 -4 -10
-10 0 -5 -7 -10 -15 -10 -11 0 -15 11 -15 39 0 33 4 40 23 44 l22 4 -22 2
c-13 0 -23 8 -23 16 0 8 -4 15 -10 15 -5 0 -10 -6 -10 -14z" />
    <path d="M13730 5022 c0 -5 7 -13 16 -16 10 -4 14 -1 12 6 -5 15 -28 23 -28
10z" />
    <path d="M14160 5021 c0 -5 7 -11 14 -14 10 -4 13 -1 9 9 -6 15 -23 19 -23 5z" />
    <path d="M13870 4990 c0 -19 29 -80 38 -80 11 0 36 28 52 58 20 39 4 36 -21
-4 -21 -34 -23 -35 -36 -18 -7 10 -13 26 -13 36 0 10 -4 18 -10 18 -5 0 -10
-5 -10 -10z" />
    <path d="M12970 4972 c-17 -13 -21 -24 -16 -40 8 -26 32 -28 56 -7 15 14 18
14 30 0 13 -16 30 -20 30 -7 0 11 -57 72 -68 72 -6 0 -20 -8 -32 -18z m40 -22
c-12 -22 -40 -27 -40 -7 0 19 10 27 32 27 16 0 17 -3 8 -20z" />
    <path d="M13222 4967 c-28 -30 -28 -53 2 -72 25 -16 70 -12 82 7 4 6 -2 7 -15
3 -30 -9 -71 2 -71 20 0 10 10 15 30 15 34 0 52 26 29 41 -22 14 -34 11 -57
-14z m43 -7 c-3 -5 -10 -10 -16 -10 -5 0 -9 5 -9 10 0 6 7 10 16 10 8 0 12 -4
9 -10z" />
    <path d="M13536 4977 c-21 -16 -18 -45 6 -61 23 -14 72 4 76 29 4 20 -22 45
-48 45 -9 0 -24 -6 -34 -13z m69 -26 c0 -17 -37 -32 -55 -21 -7 4 -10 15 -7
25 8 20 62 17 62 -4z" />
    <path d="M13815 4980 c-3 -5 -12 -7 -20 -3 -11 4 -15 -3 -15 -28 l0 -32 23 21
c29 27 37 28 37 3 0 -11 5 -23 11 -27 8 -4 9 4 4 27 -4 19 -9 37 -12 42 -6 10
-21 9 -28 -3z" />
    <path d="M13989 4969 c-22 -22 -21 -37 4 -53 12 -8 21 -5 37 9 21 19 22 19 35
1 8 -10 19 -16 25 -14 13 4 -52 78 -69 78 -6 0 -20 -9 -32 -21z m49 -11 c-5
-15 -35 -34 -43 -27 -3 4 -3 14 1 23 7 18 48 23 42 4z" />
    <path d="M14337 4972 c-37 -40 -8 -78 37 -48 21 13 26 13 36 1 7 -8 17 -15 22
-15 5 0 -5 18 -22 40 -35 44 -49 49 -73 22z m41 -14 c-6 -16 -36 -34 -44 -25
-9 9 15 37 33 37 8 0 13 -5 11 -12z" />
    <path d="M14593 4975 c-33 -23 -31 -72 3 -85 27 -11 74 -4 74 11 0 5 -13 6
-30 3 -29 -6 -60 8 -60 27 0 5 16 9 36 9 31 0 35 3 32 22 -4 28 -26 33 -55 13z
m42 -15 c-3 -5 -13 -10 -21 -10 -8 0 -14 5 -14 10 0 6 9 10 21 10 11 0 17 -4
14 -10z" />
    <path d="M12680 4970 c0 -7 -8 -9 -21 -5 -14 5 -25 2 -30 -6 -6 -10 -9 -11 -9
-1 0 6 -4 12 -10 12 -13 0 -13 -47 0 -55 6 -3 13 1 16 10 6 13 8 14 15 3 7
-10 12 -10 26 5 16 16 18 16 30 -5 13 -22 13 -21 11 11 -3 31 -28 59 -28 31z" />
    <path d="M12730 4956 c0 -31 15 -41 60 -42 35 0 35 1 31 35 l-4 35 -14 -27
c-18 -36 -53 -37 -53 -2 0 14 -4 25 -10 25 -5 0 -10 -11 -10 -24z" />
    <path d="M13740 4948 c0 -15 5 -30 10 -33 13 -8 13 25 0 45 -8 12 -10 9 -10
-12z" />
    <path d="M14171 4941 c-1 -24 2 -32 9 -25 7 7 7 19 1 35 -9 23 -10 22 -10 -10z" />
    <path d="M13751 4723 c-1 -35 1 -63 4 -63 3 0 17 12 30 28 l23 27 11 -27 c6
-16 13 -28 17 -28 8 0 -5 53 -16 64 -6 6 -17 2 -30 -9 -20 -18 -20 -18 -21 6
0 13 -4 33 -9 44 -6 14 -9 2 -9 -42z" />
    <path d="M13432 4728 c-23 -23 -14 -55 19 -67 38 -13 49 -14 49 -3 0 4 -15 12
-32 17 -41 12 -45 40 -5 40 15 -1 26 4 24 10 -5 15 -40 18 -55 3z" />
    <path d="M13537 4722 c-37 -40 -8 -78 37 -48 21 13 26 13 36 1 7 -8 17 -15 22
-15 5 0 -5 18 -22 40 -35 44 -49 49 -73 22z m41 -14 c-6 -16 -36 -34 -44 -25
-9 9 15 37 33 37 8 0 13 -5 11 -12z" />
    <path d="M13662 4728 c-16 -16 -15 -43 1 -57 21 -17 77 -26 77 -12 0 6 -10 11
-22 11 -33 0 -52 15 -44 35 4 12 13 15 31 11 19 -5 23 -3 19 9 -7 18 -45 20
-62 3z" />
    <path d="M13872 4717 c-28 -30 -28 -53 2 -72 25 -16 70 -12 82 7 4 6 -2 7 -15
3 -30 -9 -71 2 -71 20 0 10 10 15 30 15 34 0 52 26 29 41 -22 14 -34 11 -57
-14z m43 -7 c-3 -5 -10 -10 -16 -10 -5 0 -9 5 -9 10 0 6 7 10 16 10 8 0 12 -4
9 -10z" />
    <path d="M10250 3830 c-26 -26 -26 -76 -1 -90 11 -5 35 -10 53 -9 l33 1 -34 8
c-18 4 -40 15 -49 23 -14 14 -13 18 2 41 18 28 46 35 46 11 0 -8 5 -15 10 -15
11 0 13 11 4 34 -8 22 -40 20 -64 -4z" />
    <path d="M10590 3788 c0 -59 11 -73 30 -38 15 28 28 25 41 -7 6 -16 13 -23 16
-17 6 17 -15 64 -30 64 -7 0 -18 -5 -25 -12 -9 -9 -12 -7 -12 13 0 13 -5 31
-10 39 -7 11 -10 -2 -10 -42z" />
    <path d="M10507 3792 c-35 -38 -6 -78 51 -69 27 4 26 4 -6 12 -36 8 -51 30
-34 47 8 8 16 7 28 -3 14 -12 16 -11 13 6 -6 27 -31 30 -52 7z" />
    <path d="M10366 3779 c-8 -12 -12 -28 -9 -35 6 -17 45 -18 61 -2 8 8 15 8 27
-2 26 -21 28 -4 4 29 -27 36 -61 40 -83 10z m50 -5 c-3 -9 -6 -18 -6 -20 0 -2
-9 -4 -20 -4 -25 0 -26 16 -2 29 25 15 35 13 28 -5z" />
    <path d="M10707 3782 c-20 -22 -22 -53 -5 -70 15 -15 74 -16 83 -2 4 6 -5 10
-22 8 -16 -1 -34 1 -41 6 -22 13 -13 32 16 31 21 0 28 5 30 23 3 18 -1 22 -21
22 -13 0 -31 -8 -40 -18z m48 -2 c3 -5 -3 -10 -15 -10 -12 0 -18 5 -15 10 3 6
10 10 15 10 5 0 12 -4 15 -10z" />
    <path d="M13879 3823 c-1 -5 -1 -11 0 -15 0 -5 -2 -8 -6 -8 -5 0 -6 -25 -5
-55 4 -61 22 -76 22 -19 l0 36 45 -36 c44 -37 65 -37 25 -1 l-21 19 26 14 c31
16 28 32 -6 48 -35 17 -79 26 -80 17z m60 -24 c43 -15 39 -29 -9 -29 -33 0
-40 3 -40 20 0 23 5 24 49 9z" />
    <path d="M13638 3803 c-21 -8 -38 -19 -38 -24 0 -5 17 -17 37 -26 20 -10 39
-24 41 -32 4 -11 -5 -13 -43 -8 -41 6 -46 5 -35 -8 15 -18 71 -20 88 -3 21 21
13 38 -24 55 -32 16 -34 18 -18 30 10 7 26 13 36 13 10 0 18 5 18 10 0 14 -18
12 -62 -7z" />
    <path d="M13820 3767 c-23 -51 -23 -52 -29 -22 l-6 29 -22 -29 -22 -30 -1 43
c0 24 -5 42 -11 42 -8 0 -10 -17 -7 -50 6 -56 13 -69 30 -52 9 9 15 9 25 0 11
-9 17 -8 28 3 20 21 55 108 46 114 -5 2 -19 -19 -31 -48z" />
    <path d="M13403 3770 c-34 -14 -28 -27 20 -50 l42 -20 -37 4 c-43 5 -52 -10
-11 -20 15 -4 34 -2 47 6 15 10 21 10 24 1 6 -18 50 -32 78 -25 35 9 30 25 -6
18 -18 -4 -36 -1 -45 6 -24 20 -17 30 20 30 29 0 35 4 35 20 0 11 -7 23 -15
26 -19 8 -65 -22 -65 -41 0 -19 -2 -19 -45 2 -39 19 -46 33 -15 33 11 0 20 5
20 10 0 12 -17 12 -47 0z m152 -30 c-3 -5 -13 -10 -21 -10 -8 0 -14 5 -14 10
0 6 9 10 21 10 11 0 17 -4 14 -10z" />
    <path d="M13270 3730 c0 -31 3 -32 56 -34 30 -1 32 2 32 32 0 37 -9 41 -23 10
-6 -13 -19 -23 -30 -23 -15 0 -19 6 -18 23 2 12 -2 22 -7 22 -6 0 -10 -13 -10
-30z" />
    <path d="M5432 6293 c-6 -16 -30 -76 -55 -135 -25 -60 -42 -108 -37 -108 9 0
65 105 85 159 12 32 14 11 14 -176 1 -116 -3 -223 -8 -237 -7 -16 -20 -26 -38
-29 -27 -4 -26 -4 5 -6 l32 -1 0 -138 c0 -77 -3 -214 -7 -305 l-6 -167 -583 0
c-514 0 -583 2 -578 15 4 9 1 15 -7 15 -9 0 -8 4 3 13 8 6 26 41 38 76 13 35
39 84 58 109 18 24 28 41 21 36 -9 -5 -10 -2 -6 10 4 10 3 15 -3 11 -6 -4 -31
-47 -56 -97 -25 -49 -47 -88 -50 -85 -3 2 16 229 41 504 48 532 49 553 37 553
-4 0 -16 -100 -25 -222 -10 -123 -20 -244 -24 -270 l-5 -47 -52 -4 -51 -3 53
-2 54 -2 -6 -37 c-3 -21 -13 -130 -22 -243 -20 -265 -24 -277 -52 -174 -11 43
-24 97 -29 119 l-7 40 -4 -32 c-3 -26 25 -141 64 -265 5 -17 -73 -18 -1536
-18 -1330 0 -1545 -2 -1576 -15 -56 -23 -65 -59 -67 -265 -2 -192 2 -209 60
-247 26 -17 91 -18 1083 -18 l1055 0 -1 -47 c0 -27 3 -48 8 -48 4 0 8 -9 8
-20 0 -11 -4 -20 -10 -20 -6 0 -11 -96 -12 -252 l-3 -253 -39 118 c-25 74 -43
114 -49 108 -6 -6 -3 -27 8 -58 10 -26 30 -84 45 -128 15 -44 33 -80 39 -80
11 0 98 196 108 245 9 42 -11 10 -52 -83 -21 -48 -39 -86 -41 -84 -2 2 1 118
7 258 6 140 9 275 6 302 l-4 47 1753 0 c1399 0 1754 -3 1754 -13 0 -7 -21 -56
-48 -109 -36 -74 -44 -99 -34 -103 8 -3 16 3 19 15 3 10 18 45 34 77 l29 58
-5 -170 c-3 -93 -8 -187 -11 -207 l-6 -38 -66 0 c-398 0 -853 -13 -898 -26
-55 -15 -106 -61 -125 -113 -6 -15 -11 -142 -12 -296 -2 -269 -2 -270 23 -320
46 -93 28 -90 543 -93 432 -3 448 -4 442 -22 -22 -71 -45 -163 -41 -168 7 -6
10 3 38 103 17 60 28 81 42 83 19 4 19 -10 12 -644 -7 -691 -11 -868 -21 -884
-4 -6 -494 -10 -1335 -10 l-1330 0 0 25 c0 14 18 62 41 106 22 44 38 86 36 92
-2 7 -20 -22 -40 -63 l-35 -75 -1 86 c-1 47 2 107 5 133 l7 46 46 2 46 1 -45
6 -45 6 3 50 c2 27 6 52 9 55 2 3 143 5 311 5 169 1 313 2 319 3 7 1 20 13 29
27 13 21 17 58 18 208 l3 182 -33 33 -32 32 -736 0 c-405 0 -736 2 -736 3 0 2
18 56 40 120 40 116 48 149 31 132 -5 -6 -21 -50 -36 -98 -15 -49 -29 -86 -32
-84 -3 3 0 112 7 241 6 130 9 240 5 246 -4 6 207 10 610 10 635 0 691 3 739
41 39 31 46 77 42 300 -4 230 -9 253 -66 282 -33 16 -112 17 -1330 16 -712 0
-1320 -5 -1349 -10 -37 -6 -63 -17 -80 -34 l-26 -25 -3 -229 c-4 -271 0 -290
72 -321 42 -19 70 -20 711 -20 l666 0 -6 -128 c-4 -70 -10 -183 -14 -252 l-6
-125 -23 65 c-23 64 -68 154 -58 115 3 -11 21 -60 40 -110 19 -49 35 -100 36
-112 l0 -22 -393 -3 c-438 -3 -434 -3 -457 -72 -15 -46 -8 -342 9 -374 7 -13
23 -27 37 -32 15 -6 348 -10 840 -10 l814 0 -1 -132 c-1 -73 -4 -164 -8 -203
l-6 -70 -20 79 c-12 44 -27 82 -34 84 -8 3 -11 0 -8 -5 4 -5 19 -58 36 -118
l29 -108 -707 4 -706 4 -50 -23 c-63 -29 -91 -55 -121 -113 -36 -72 -41 -144
-39 -549 3 -416 2 -414 71 -490 20 -21 56 -47 82 -57 45 -17 160 -18 2562 -18
2399 0 2517 1 2562 18 60 23 119 87 149 163 24 58 24 65 26 404 0 190 -3 372
-9 405 -19 115 -69 193 -153 238 -39 22 -48 22 -493 22 l-452 0 0 615 c0 338
3 682 7 763 l6 148 40 -91 c22 -50 44 -87 49 -82 4 4 -11 45 -34 90 -23 45
-40 84 -37 86 2 2 114 6 249 8 232 3 248 4 292 26 29 15 56 38 70 60 22 36 23
45 26 329 3 325 0 346 -60 383 -52 31 -118 40 -343 42 l-210 3 2 70 c8 224 16
365 22 360 3 -4 15 -43 27 -88 12 -44 26 -83 33 -85 8 -3 9 3 1 20 -12 29 -50
181 -50 202 0 14 26 15 233 9 339 -9 333 -14 335 256 2 181 -5 226 -44 262
l-26 24 -940 3 c-842 2 -939 4 -934 18 3 8 9 146 13 305 4 174 10 289 16 289
5 0 4 6 -2 14 -7 8 -10 27 -7 43 2 15 5 119 5 231 1 111 5 202 9 202 7 0 39
-96 69 -199 2 -8 6 -11 9 -9 16 17 -69 278 -91 278 -7 0 -18 -12 -23 -27z
m1875 -1174 c-1 -6 4 -14 12 -17 9 -3 11 0 6 9 -5 8 -5 11 -1 7 4 -3 6 -8 5
-10 -2 -1 4 -14 14 -28 15 -21 17 -51 17 -218 0 -187 -1 -194 -22 -215 l-23
-22 -3098 0 -3099 0 -29 33 -29 32 0 170 c0 125 4 180 14 205 8 18 11 37 8 41
-4 4 -2 4 4 1 7 -4 17 0 24 8 11 13 373 15 3106 15 2266 0 3093 -3 3091 -11z
m-21 -1045 c26 -13 47 -34 64 -64 l25 -45 -3 -280 c-3 -317 -6 -332 -78 -369
-35 -19 -62 -22 -289 -27 -278 -6 -275 -7 -275 59 0 33 -1 34 -22 20 -12 -8
-27 -30 -33 -49 l-12 -34 -441 2 c-494 1 -495 1 -537 73 -19 33 -20 54 -22
305 -2 168 2 282 8 303 12 37 51 87 83 105 34 19 243 25 887 23 575 -2 607 -3
645 -22z m-4678 -191 c-26 -2 -71 -2 -100 0 -29 2 -8 3 47 3 55 0 79 -1 53 -3z
m205 0 c-29 -2 -77 -2 -105 0 -29 2 -6 3 52 3 58 0 81 -1 53 -3z m205 0 c-26
-2 -71 -2 -100 0 -29 2 -8 3 47 3 55 0 79 -1 53 -3z m1522 -28 c12 -11 26 -30
31 -42 14 -38 14 -445 0 -472 -7 -12 -31 -31 -54 -42 -41 -18 -89 -19 -1365
-19 l-1323 0 -24 25 c-14 13 -25 30 -25 37 0 9 -2 10 -8 1 -13 -21 -19 132
-13 366 4 132 4 133 31 150 25 15 142 16 1377 16 1337 0 1351 0 1373 -20z
m2161 -568 c-8 -8 -11 -7 -11 4 0 20 13 34 18 19 3 -7 -1 -17 -7 -23z m-2058
-619 c-2 -5 -2 -8 1 -8 2 0 13 -3 23 -6 15 -5 16 -4 3 6 -13 10 -13 11 0 7 8
-2 15 -8 15 -13 0 -5 8 -20 17 -34 14 -20 15 -37 9 -89 -4 -36 -6 -108 -3
-161 l4 -96 -32 -27 c-17 -15 -27 -27 -21 -27 5 0 13 5 16 10 3 6 11 10 18 10
8 0 8 -3 0 -11 -11 -11 -282 -13 -458 -4 -57 3 -722 3 -1719 0 -205 0 -195
-10 -196 200 0 170 2 204 12 202 4 -1 13 7 21 18 13 17 31 21 134 26 172 9
2162 5 2156 -3z m-1740 -455 c-18 -2 -48 -2 -65 0 -18 2 -4 4 32 4 36 0 50 -2
33 -4z m205 0 c-32 -2 -84 -2 -115 0 -32 2 -6 3 57 3 63 0 89 -1 58 -3z m200
0 c-27 -2 -69 -2 -95 0 -27 2 -5 3 47 3 52 0 74 -1 48 -3z m190 0 c-27 -2 -69
-2 -95 0 -27 2 -5 3 47 3 52 0 74 -1 48 -3z m170 0 c-21 -2 -57 -2 -80 0 -24
2 -7 4 37 4 44 0 63 -2 43 -4z m160 0 c-21 -2 -57 -2 -80 0 -24 2 -7 4 37 4
44 0 63 -2 43 -4z m90 0 c-10 -2 -26 -2 -35 0 -10 3 -2 5 17 5 19 0 27 -2 18
-5z m2772 -714 c-1 -122 1 -224 4 -227 3 -3 6 9 6 27 0 19 4 30 10 26 7 -4 10
63 10 194 l0 201 428 0 c495 0 508 -2 579 -76 30 -31 47 -61 61 -106 17 -58
19 -96 18 -448 -2 -377 -2 -386 -24 -435 -28 -60 -64 -100 -117 -128 l-40 -21
-2515 -2 c-1825 -2 -2526 1 -2554 9 -53 15 -131 88 -150 140 -13 36 -15 102
-13 452 2 405 2 411 25 461 28 63 84 119 137 138 35 13 319 15 2088 15 l2048
1 -1 -221z m17 149 c-3 -8 -6 -5 -6 6 -1 11 2 17 5 13 3 -3 4 -12 1 -19z m0
-125 c-2 -21 -4 -4 -4 37 0 41 2 58 4 38 2 -21 2 -55 0 -75z m0 -150 c-2 -21
-4 -4 -4 37 0 41 2 58 4 38 2 -21 2 -55 0 -75z m1110 -315 c-2 -18 -4 -4 -4
32 0 36 2 50 4 33 2 -18 2 -48 0 -65z m-2504 -565 c-35 -2 -91 -2 -125 0 -35
2 -7 3 62 3 69 0 97 -1 63 -3z m145 0 c-16 -2 -40 -2 -55 0 -16 2 -3 4 27 4
30 0 43 -2 28 -4z m155 0 c-24 -2 -62 -2 -85 0 -24 2 -5 4 42 4 47 0 66 -2 43
-4z m95 0 c-10 -2 -26 -2 -35 0 -10 3 -2 5 17 5 19 0 27 -2 18 -5z" />
    <path d="M4230 4921 c0 -29 -1 -30 -25 -19 -27 12 -55 -2 -55 -28 0 -19 -6
-18 -30 6 -28 28 -95 23 -121 -10 -15 -21 -21 -22 -28 -11 -8 13 -12 13 -26 1
-15 -12 -17 -12 -13 8 1 11 -1 21 -7 22 -5 0 -10 -15 -10 -32 0 -32 2 -33 35
-30 19 2 44 12 54 22 19 19 20 19 31 -3 13 -28 49 -33 80 -13 30 20 35 20 35
0 0 -8 4 -13 9 -10 5 3 7 14 5 24 -7 28 11 45 40 38 21 -5 26 -12 26 -39 1
-29 2 -30 14 -14 12 15 15 15 26 2 14 -16 40 -20 40 -6 0 5 -9 11 -21 14 -26
7 -21 28 12 45 23 13 22 13 -13 7 -35 -5 -38 -4 -38 19 0 14 -4 28 -10 31 -6
4 -10 -6 -10 -24z m-115 -60 c0 -17 -37 -32 -55 -21 -7 4 -10 15 -7 25 8 20
62 17 62 -4z" />
    <path d="M4452 4898 c-14 -14 -16 -78 -2 -78 6 0 10 16 10 36 0 36 1 36 31 30
27 -5 30 -4 19 9 -15 18 -42 19 -58 3z" />
    <path d="M4350 4880 c-11 -11 -20 -29 -20 -40 0 -27 42 -53 74 -44 38 9 32 24
-8 17 -28 -4 -36 -1 -45 16 -11 19 -9 21 23 21 36 0 53 19 33 39 -16 16 -34
14 -57 -9z m45 -10 c-3 -5 -13 -10 -21 -10 -8 0 -12 5 -9 10 3 6 13 10 21 10
8 0 12 -4 9 -10z" />
    <path d="M6425 3753 c-4 -13 -14 -23 -21 -23 -21 0 -17 -17 6 -23 15 -4 20
-14 20 -42 0 -34 2 -36 27 -33 18 2 29 10 32 23 3 17 1 17 -12 6 -22 -17 -37
-6 -37 28 0 21 6 31 23 36 l22 8 -22 4 c-12 2 -24 12 -26 21 -4 14 -6 13 -12
-5z" />
    <path d="M6610 3698 c0 -59 11 -73 30 -38 13 25 30 26 37 3 5 -21 64 -53 98
-53 40 0 38 19 -2 22 -46 4 -60 34 -16 33 22 0 29 5 31 23 3 18 -1 22 -21 22
-26 0 -57 -27 -57 -51 -1 -8 -8 -2 -16 14 -16 29 -33 34 -52 15 -9 -9 -12 -7
-12 13 0 13 -5 31 -10 39 -7 11 -10 -2 -10 -42z m160 -8 c0 -5 -8 -10 -17 -10
-15 0 -16 2 -3 10 19 12 20 12 20 0z" />
    <path d="M6237 3696 c-19 -29 -77 -32 -77 -3 0 9 -4 17 -10 17 -5 0 -10 -15
-10 -34 0 -33 1 -35 34 -33 35 3 70 26 87 59 15 27 -6 22 -24 -6z" />
    <path d="M6527 3702 c-35 -38 -6 -77 51 -70 26 4 26 4 -8 14 -24 7 -35 16 -35
30 0 14 6 18 23 16 15 -1 22 2 20 10 -7 21 -33 20 -51 0z" />
    <path d="M6827 3713 c-11 -10 -8 -73 3 -73 6 0 10 14 10 30 0 27 3 30 31 30
17 0 28 4 24 10 -7 11 -58 14 -68 3z" />
    <path d="M6275 3690 c-33 -36 0 -64 46 -39 15 8 24 7 35 -2 25 -21 24 -5 -2
29 -29 37 -53 41 -79 12z m47 -5 c0 -14 -29 -31 -38 -22 -9 8 16 39 28 35 5
-2 10 -8 10 -13z" />
    <path d="M1798 3848 c-13 -13 -17 -18 -8 -12 8 6 24 16 35 22 11 6 15 12 8 12
-7 0 -22 -10 -35 -22z" />
    <path d="M3086 3658 c-3 -13 -6 -35 -6 -49 0 -32 -32 -75 -48 -65 -14 9 -4 36
14 36 8 0 14 5 14 10 0 14 -23 13 -38 -2 -7 -7 -12 -22 -12 -35 0 -18 6 -23
24 -23 13 0 29 7 37 16 11 14 14 14 23 1 8 -10 12 5 13 60 2 71 -8 96 -21 51z" />
    <path d="M2827 3603 c-11 -10 -8 -73 3 -73 6 0 10 14 10 30 0 27 3 30 31 30
17 0 28 4 24 10 -7 11 -58 14 -68 3z" />
    <path d="M3257 3592 c-35 -38 -6 -78 51 -69 27 4 26 4 -6 12 -36 8 -51 30 -34
47 8 8 16 7 28 -3 14 -12 16 -11 13 6 -6 27 -31 30 -52 7z" />
    <path d="M3462 3598 c-14 -14 -16 -68 -2 -68 6 0 10 14 10 30 0 30 7 34 44 30
11 -1 15 3 12 9 -9 15 -49 14 -64 -1z" />
    <path d="M2927 3582 c-20 -22 -22 -53 -5 -70 14 -14 74 -16 83 -2 3 5 -10 9
-32 8 -33 -1 -40 3 -46 29 -1 4 12 7 28 8 23 0 31 5 33 23 3 18 -1 22 -21 22
-13 0 -31 -8 -40 -18z m43 -2 c0 -5 -7 -10 -16 -10 -8 0 -12 5 -9 10 3 6 10
10 16 10 5 0 9 -4 9 -10z" />
    <path d="M3137 3592 c-5 -7 -6 -24 -3 -37 6 -22 11 -24 49 -23 41 2 43 3 39
31 l-5 29 -23 -28 c-25 -32 -40 -26 -46 16 -2 18 -5 21 -11 12z" />
    <path d="M3363 3588 c-35 -45 -14 -88 43 -88 49 0 51 18 2 22 -32 2 -44 8 -46
21 -3 14 1 17 20 12 29 -7 53 8 45 29 -8 19 -50 21 -64 4z m47 -8 c0 -5 -7
-10 -16 -10 -8 0 -12 5 -9 10 3 6 10 10 16 10 5 0 9 -4 9 -10z" />
    <path d="M3370 2506 c0 -8 -9 -18 -20 -21 -11 -3 -20 -11 -20 -16 0 -6 9 -7
20 -4 17 5 20 2 20 -27 0 -44 13 -62 38 -54 21 7 39 36 22 36 -6 0 -10 -4 -10
-10 0 -5 -7 -10 -15 -10 -11 0 -15 11 -15 39 0 33 4 40 23 44 l22 4 -22 2
c-13 0 -23 8 -23 16 0 8 -4 15 -10 15 -5 0 -10 -6 -10 -14z" />
    <path d="M3620 2508 c0 -9 -9 -20 -20 -23 -11 -3 -20 -11 -20 -16 0 -6 9 -8
19 -4 17 5 20 0 23 -37 2 -30 8 -44 19 -46 18 -3 54 27 43 37 -4 3 -9 0 -11
-6 -3 -7 -11 -13 -19 -13 -10 0 -14 12 -14 40 0 34 3 40 23 41 20 1 20 2 2 6
-11 3 -26 12 -32 21 -12 14 -13 14 -13 0z" />
    <path d="M3252 2467 c-17 -10 -20 -15 -10 -25 7 -7 17 -12 23 -12 6 0 20 -7
31 -16 18 -14 17 -15 -21 -10 -37 5 -39 4 -20 -10 25 -19 69 -14 73 7 2 10 -8
21 -28 29 -34 14 -40 30 -10 30 11 0 20 5 20 10 0 14 -30 12 -58 -3z" />
    <path d="M3470 2450 c-24 -24 -25 -33 -4 -51 13 -10 20 -10 45 5 26 15 30 16
35 2 3 -9 13 -16 21 -16 10 0 5 12 -17 40 -36 45 -51 49 -80 20z m48 -12 c-5
-15 -35 -34 -43 -27 -3 4 -3 14 1 23 7 18 48 23 42 4z" />
    <path d="M3721 2444 c-26 -33 -26 -39 0 -65 14 -14 28 -19 42 -15 12 3 28 6
35 6 6 0 12 4 12 10 0 5 -13 7 -30 4 -29 -6 -60 8 -60 27 0 4 15 9 33 11 24 2
32 8 32 23 0 31 -39 31 -64 -1z m49 -4 c0 -5 -7 -10 -15 -10 -8 0 -15 5 -15
10 0 6 7 10 15 10 8 0 15 -4 15 -10z" />
    <path d="M6156 1205 c-25 -26 -36 -84 -36 -196 0 -118 6 -131 71 -149 46 -14
908 -14 943 0 41 15 53 59 51 182 -2 117 -15 151 -61 168 -15 6 -218 10 -489
10 -403 0 -466 -2 -479 -15z m514 -5 c425 0 449 -1 471 -19 22 -18 24 -26 26
-144 3 -150 -1 -157 -83 -168 -67 -10 -423 -10 -717 0 -181 5 -200 8 -213 25
-16 23 -20 219 -5 259 13 34 41 59 58 53 8 -3 216 -6 463 -6z" />
    <path d="M6220 1120 c0 -5 7 -10 15 -10 12 0 15 -13 15 -60 0 -53 -2 -60 -20
-60 -11 0 -20 -4 -20 -10 0 -6 26 -10 59 -10 68 0 93 18 73 51 -8 13 -9 25 -3
37 11 21 4 35 -24 49 -32 17 -95 25 -95 13z m100 -36 c13 -13 13 -16 0 -24 -8
-5 -25 -10 -37 -10 -19 0 -23 5 -23 31 0 27 3 30 23 24 12 -4 29 -14 37 -21z
m-12 -60 c25 -7 29 -29 6 -38 -31 -12 -44 -6 -44 19 0 27 3 28 38 19z" />
    <path d="M7079 1115 c-4 -5 -9 -27 -13 -47 -9 -47 -24 -57 -32 -21 -12 56 -16
59 -29 23 -21 -60 -26 -90 -15 -90 5 0 10 9 10 19 0 28 17 35 25 11 11 -35 33
-22 50 30 15 45 18 99 4 75z" />
    <path d="M6855 1085 c-30 -29 -32 -65 -7 -88 25 -23 54 -21 86 4 33 26 35 71
4 93 -32 22 -55 20 -83 -9z m79 -11 c21 -20 20 -30 -5 -55 -29 -29 -73 -23
-77 13 -2 18 4 31 20 42 28 20 42 20 62 0z" />
    <path d="M6375 1066 c-9 -47 2 -75 32 -82 30 -8 76 23 81 54 2 11 13 23 27 26
13 3 30 9 39 12 13 5 16 -2 16 -45 0 -28 5 -51 10 -51 6 0 10 23 10 50 l0 50
35 0 c19 0 35 -5 35 -11 0 -9 16 -7 58 8 8 4 12 -9 12 -46 0 -28 5 -51 10 -51
6 0 10 22 10 49 l0 50 38 3 c30 3 33 5 18 13 -11 5 -44 4 -80 -2 -42 -7 -66
-7 -78 1 -12 7 -37 7 -85 -1 -42 -8 -69 -9 -71 -3 -2 6 -8 10 -13 10 -4 0 -6
-6 -3 -14 3 -7 -2 -30 -10 -51 -13 -31 -20 -36 -43 -33 -26 3 -28 6 -27 51 0
55 -12 63 -21 13z" />
    <path d="M5085 1170 c-3 -5 1 -10 9 -10 21 0 22 -63 1 -80 -21 -18 -11 -27 25
-22 35 5 51 22 21 22 -34 0 -24 70 12 88 19 9 17 11 -20 11 -23 1 -45 -3 -48
-9z" />
    <path d="M4947 1163 c-12 -11 -8 -78 5 -91 21 -21 65 -14 87 14 22 27 29 84
11 84 -5 0 -10 -13 -10 -30 0 -32 -30 -70 -55 -70 -21 0 -36 34 -29 69 6 31 4
37 -9 24z" />
    <path d="M15554 5446 c3 -225 6 -476 6 -558 0 -92 4 -148 10 -148 6 0 10 93
10 258 l0 257 45 -3 c27 -3 45 0 45 6 0 6 -21 12 -47 14 l-48 3 -3 280 c-1
189 -6 283 -13 290 -9 7 -10 -99 -5 -399z" />
    <path d="M15900 5831 c0 -25 -67 -219 -86 -248 -12 -19 -12 -23 -1 -23 8 0 27
38 47 98 18 53 37 101 41 107 5 5 10 -514 11 -1165 1 -646 3 -1213 3 -1260 l0
-85 -80 -2 c-167 -3 -281 -42 -370 -124 l-42 -38 -236 477 c-249 504 -437 891
-437 901 0 3 39 -33 86 -79 48 -47 85 -80 83 -73 -5 16 -207 220 -225 227 -10
4 -14 -2 -14 -22 0 -22 2 -24 11 -12 8 11 9 8 4 -13 -7 -33 23 -247 37 -262 6
-6 7 3 3 25 -8 46 -22 220 -17 220 5 0 367 -739 503 -1027 62 -133 118 -239
123 -236 5 4 6 1 2 -5 -7 -12 44 -123 54 -117 4 2 5 -8 3 -23 -19 -146 -16
-170 32 -242 l34 -50 -25 0 c-13 0 -24 -4 -24 -10 0 -5 17 -10 39 -10 22 0 66
-13 102 -30 65 -30 166 -60 204 -60 42 0 47 -13 25 -64 -23 -54 -61 -198 -55
-205 7 -7 9 -2 34 84 12 44 31 98 41 120 l18 40 1 -237 c1 -152 5 -238 11
-238 6 0 10 81 11 223 l0 222 19 -50 c27 -77 70 -169 75 -163 3 2 -15 55 -40
116 -25 62 -45 118 -45 125 0 11 23 16 88 20 112 7 175 27 253 80 50 34 70 55
98 107 78 143 27 267 -144 352 -81 41 -152 61 -191 54 l-34 -7 -2 798 c-1 439
-2 890 -2 1003 l-1 205 45 6 45 6 -47 1 -48 2 0 255 c0 148 4 255 9 255 10 0
71 -174 71 -203 0 -9 5 -17 10 -17 6 0 10 6 10 14 0 16 -50 162 -80 230 -20
47 -40 61 -40 27z m145 -2606 c28 -1 64 -9 80 -18 38 -21 28 -21 -18 -2 -20 8
-42 15 -49 15 -7 0 14 -12 47 -26 33 -14 66 -28 74 -31 10 -5 12 -2 6 8 -4 8
-5 11 -1 7 4 -3 7 -9 7 -13 -1 -3 17 -20 40 -38 57 -43 79 -76 86 -125 7 -55
-3 -103 -31 -145 -14 -20 -22 -37 -20 -40 17 -17 -158 -128 -199 -126 -7 0 11
11 40 24 61 27 147 85 139 92 -3 3 -17 -4 -32 -16 -18 -14 -43 -21 -78 -22
l-51 -2 40 -6 40 -7 -59 -27 c-32 -15 -64 -27 -70 -27 -6 0 -4 -5 4 -11 13 -9
12 -10 -3 -5 -10 3 -52 1 -94 -6 -68 -10 -77 -9 -89 6 -10 14 -15 15 -32 5
-42 -27 -246 33 -329 97 -53 41 -83 101 -86 178 -2 37 0 61 4 55 4 -8 9 -4 14
10 3 11 3 25 0 31 -4 6 -3 10 2 8 4 -1 31 21 59 49 96 94 208 126 409 116 55
-3 123 -6 150 -8z" />
    <path d="M15955 3010 c3 -5 8 -10 11 -10 2 0 4 5 4 10 0 6 -5 10 -11 10 -5 0
-7 -4 -4 -10z" />
    <path d="M15554 2976 c-18 -14 -17 -15 19 -31 42 -18 42 -35 0 -27 -22 3 -25
2 -17 -7 14 -15 76 -10 81 6 3 6 -10 19 -27 28 -30 16 -31 17 -13 30 17 14 17
14 -3 15 -11 0 -29 -6 -40 -14z" />
    <path d="M15772 2978 c-14 -14 -16 -68 -2 -68 6 0 10 14 10 30 0 27 3 30 34
30 28 0 36 -5 46 -30 7 -16 18 -30 26 -30 16 0 57 56 52 72 -3 7 -13 -2 -23
-20 -22 -36 -37 -37 -45 -1 -5 20 -13 24 -46 27 -22 1 -45 -3 -52 -10z" />
    <path d="M16010 2970 c-11 -11 -20 -24 -20 -29 0 -16 43 -41 70 -40 23 1 22 2
-10 16 -45 19 -45 20 -30 38 7 9 21 13 31 10 23 -8 26 10 3 19 -22 8 -22 8
-44 -14z" />
    <path d="M15664 2955 c-31 -48 10 -88 74 -69 25 7 24 8 -18 13 -32 4 -46 11
-48 24 -3 14 1 17 20 12 26 -7 55 16 43 35 -12 19 -54 11 -71 -15z m51 5 c3
-5 -1 -10 -10 -10 -9 0 -13 5 -10 10 3 6 8 10 10 10 2 0 7 -4 10 -10z" />
    <path d="M16117 2962 c-20 -22 -22 -53 -5 -70 15 -15 74 -16 83 -2 4 6 -8 10
-28 10 -19 0 -40 7 -47 15 -7 8 -9 15 -4 16 5 1 20 2 34 2 36 3 43 47 7 47
-13 0 -31 -8 -40 -18z m43 -2 c0 -5 -7 -10 -16 -10 -8 0 -12 5 -9 10 3 6 10
10 16 10 5 0 9 -4 9 -10z" />
    <path d="M15960 2938 c0 -16 5 -28 10 -28 13 0 13 20 0 40 -8 12 -10 9 -10
-12z" />
    <path d="M15590 2770 c0 -5 20 -10 45 -10 25 0 45 5 45 10 0 6 -20 10 -45 10
-25 0 -45 -4 -45 -10z" />
    <path d="M15760 2770 c0 -5 21 -10 48 -9 35 0 42 3 27 9 -28 12 -75 12 -75 0z" />
    <path d="M15953 2763 c15 -2 37 -2 50 0 12 2 0 4 -28 4 -27 0 -38 -2 -22 -4z" />
    <path d="M770 5780 c0 -5 25 -10 56 -10 34 0 53 4 49 10 -3 6 -28 10 -56 10
-27 0 -49 -4 -49 -10z" />
    <path d="M955 5780 c-4 -6 14 -10 47 -9 39 0 48 3 33 9 -28 12 -73 12 -80 0z" />
    <path d="M8270 5780 c0 -6 37 -10 93 -9 76 1 85 3 52 10 -56 11 -145 11 -145
-1z" />
    <path d="M643 5768 c-18 -6 -33 -15 -33 -21 0 -5 8 -6 18 -2 9 4 27 10 40 12
12 3 22 9 22 14 0 11 -5 10 -47 -3z" />
    <path d="M1143 5773 c15 -2 39 -2 55 0 15 2 2 4 -28 4 -30 0 -43 -2 -27 -4z" />
    <path d="M1313 5773 c15 -2 39 -2 55 0 15 2 2 4 -28 4 -30 0 -43 -2 -27 -4z" />
    <path d="M1483 5773 c15 -2 39 -2 55 0 15 2 2 4 -28 4 -30 0 -43 -2 -27 -4z" />
    <path d="M1653 5773 c15 -2 39 -2 55 0 15 2 2 4 -28 4 -30 0 -43 -2 -27 -4z" />
    <path d="M1823 5773 c15 -2 39 -2 55 0 15 2 2 4 -28 4 -30 0 -43 -2 -27 -4z" />
    <path d="M1971 5776 c8 -8 88 -10 95 -3 4 4 -17 7 -46 7 -29 0 -51 -2 -49 -4z" />
    <path d="M2145 5770 c3 -5 24 -10 45 -10 21 0 42 5 45 10 4 6 -13 10 -45 10
-32 0 -49 -4 -45 -10z" />
    <path d="M2320 5770 c0 -5 18 -10 39 -10 22 0 43 5 46 10 4 6 -12 10 -39 10
-25 0 -46 -4 -46 -10z" />
    <path d="M2490 5770 c0 -5 18 -10 39 -10 22 0 43 5 46 10 4 6 -12 10 -39 10
-25 0 -46 -4 -46 -10z" />
    <path d="M2660 5770 c0 -5 18 -10 39 -10 22 0 43 5 46 10 4 6 -12 10 -39 10
-25 0 -46 -4 -46 -10z" />
    <path d="M2825 5770 c3 -5 24 -10 45 -10 21 0 42 5 45 10 4 6 -13 10 -45 10
-32 0 -49 -4 -45 -10z" />
    <path d="M3000 5770 c0 -5 20 -10 45 -10 25 0 45 5 45 10 0 6 -20 10 -45 10
-25 0 -45 -4 -45 -10z" />
    <path d="M3170 5770 c0 -5 20 -10 45 -10 25 0 45 5 45 10 0 6 -20 10 -45 10
-25 0 -45 -4 -45 -10z" />
    <path d="M3340 5770 c0 -5 21 -10 46 -10 27 0 43 4 39 10 -3 6 -24 10 -46 10
-21 0 -39 -4 -39 -10z" />
    <path d="M6590 5770 c-20 -6 -16 -8 23 -9 30 -1 46 3 42 9 -7 11 -29 11 -65 0z" />
    <path d="M6735 5770 c-4 -6 13 -10 45 -10 32 0 49 4 45 10 -3 6 -24 10 -45 10
-21 0 -42 -4 -45 -10z" />
    <path d="M6910 5770 c0 -5 20 -10 45 -10 25 0 45 5 45 10 0 6 -20 10 -45 10
-25 0 -45 -4 -45 -10z" />
    <path d="M7080 5770 c0 -5 18 -10 39 -10 22 0 43 5 46 10 4 6 -12 10 -39 10
-25 0 -46 -4 -46 -10z" />
    <path d="M7250 5770 c0 -5 18 -10 39 -10 22 0 43 5 46 10 4 6 -12 10 -39 10
-25 0 -46 -4 -46 -10z" />
    <path d="M7420 5770 c0 -5 18 -10 39 -10 22 0 43 5 46 10 4 6 -12 10 -39 10
-25 0 -46 -4 -46 -10z" />
    <path d="M7586 5770 c6 -6 26 -6 54 -1 l45 9 -54 1 c-36 1 -52 -2 -45 -9z" />
    <path d="M7773 5773 c15 -2 39 -2 55 0 15 2 2 4 -28 4 -30 0 -43 -2 -27 -4z" />
    <path d="M7943 5773 c15 -2 39 -2 55 0 15 2 2 4 -28 4 -30 0 -43 -2 -27 -4z" />
    <path d="M8123 5773 c15 -2 37 -2 50 0 12 2 0 4 -28 4 -27 0 -38 -2 -22 -4z" />
    <path d="M3533 5763 c15 -2 37 -2 50 0 12 2 0 4 -28 4 -27 0 -38 -2 -22 -4z" />
    <path d="M3703 5763 c15 -2 37 -2 50 0 12 2 0 4 -28 4 -27 0 -38 -2 -22 -4z" />
    <path d="M3863 5763 c15 -2 39 -2 55 0 15 2 2 4 -28 4 -30 0 -43 -2 -27 -4z" />
    <path d="M4033 5763 c15 -2 39 -2 55 0 15 2 2 4 -28 4 -30 0 -43 -2 -27 -4z" />
    <path d="M4373 5763 c15 -2 39 -2 55 0 15 2 2 4 -28 4 -30 0 -43 -2 -27 -4z" />
    <path d="M4543 5763 c15 -2 39 -2 55 0 15 2 2 4 -28 4 -30 0 -43 -2 -27 -4z" />
    <path d="M4713 5763 c15 -2 39 -2 55 0 15 2 2 4 -28 4 -30 0 -43 -2 -27 -4z" />
    <path d="M4883 5763 c15 -2 39 -2 55 0 15 2 2 4 -28 4 -30 0 -43 -2 -27 -4z" />
    <path d="M5053 5763 c15 -2 39 -2 55 0 15 2 2 4 -28 4 -30 0 -43 -2 -27 -4z" />
    <path d="M5223 5763 c15 -2 39 -2 55 0 15 2 2 4 -28 4 -30 0 -43 -2 -27 -4z" />
    <path d="M5563 5763 c15 -2 39 -2 55 0 15 2 2 4 -28 4 -30 0 -43 -2 -27 -4z" />
    <path d="M5733 5763 c15 -2 39 -2 55 0 15 2 2 4 -28 4 -30 0 -43 -2 -27 -4z" />
    <path d="M5903 5763 c15 -2 39 -2 55 0 15 2 2 4 -28 4 -30 0 -43 -2 -27 -4z" />
    <path d="M6083 5763 c15 -2 37 -2 50 0 12 2 0 4 -28 4 -27 0 -38 -2 -22 -4z" />
    <path d="M6243 5763 c15 -2 39 -2 55 0 15 2 2 4 -28 4 -30 0 -43 -2 -27 -4z" />
    <path d="M6423 5763 c15 -2 37 -2 50 0 12 2 0 4 -28 4 -27 0 -38 -2 -22 -4z" />
    <path d="M8520 5746 c0 -7 72 -47 77 -42 6 5 -52 46 -66 46 -6 0 -11 -2 -11
-4z" />
    <path d="M511 5666 c-22 -36 -25 -46 -13 -46 4 0 17 18 30 40 27 48 12 54 -17
6z" />
    <path d="M8657 5593 c9 -26 18 -42 21 -35 5 16 -17 82 -28 82 -5 0 -2 -21 7
-47z" />
    <path d="M468 5530 c-12 -39 -10 -86 3 -73 5 5 9 30 7 54 -3 37 -4 40 -10 19z" />
    <path d="M1435 5493 c-9 -68 -14 -80 -31 -87 -39 -15 -39 18 0 35 18 8 17 8
-9 6 -25 -2 -31 -7 -33 -30 -4 -34 19 -45 52 -24 13 9 27 12 32 7 5 -5 10 20
11 60 2 81 -13 102 -22 33z" />
    <path d="M1126 5498 c-9 -37 -7 -118 4 -118 6 0 10 27 10 60 0 65 6 70 55 48
42 -19 28 -34 -27 -29 -29 3 -21 -13 22 -48 41 -32 57 -29 20 4 -20 18 -20 18
2 29 12 6 23 16 25 23 5 15 -32 39 -73 48 -27 5 -32 3 -38 -17z" />
    <path d="M8677 5473 c-11 -10 -8 -93 3 -93 6 0 10 23 10 50 0 51 -1 55 -13 43z" />
    <path d="M1271 5434 c-26 -33 -26 -39 0 -65 14 -14 28 -19 42 -15 12 3 28 6
35 6 6 0 12 4 12 10 0 5 -13 7 -30 4 -29 -6 -60 8 -60 27 0 4 15 9 33 11 24 2
32 8 32 23 0 31 -39 31 -64 -1z m49 -4 c0 -5 -7 -10 -15 -10 -8 0 -15 5 -15
10 0 6 7 10 15 10 8 0 15 -4 15 -10z" />
    <path d="M1610 5447 c0 -9 5 -19 11 -23 8 -4 4 -13 -12 -25 -13 -10 -20 -21
-16 -25 4 -4 16 1 27 11 16 15 22 16 35 5 9 -7 19 -10 22 -6 4 4 1 11 -7 17
-12 8 -10 14 15 34 33 27 25 32 -15 10 -22 -12 -27 -11 -42 2 -16 15 -18 15
-18 0z" />
    <path d="M1480 5426 c0 -31 15 -41 60 -42 35 0 35 1 31 35 l-4 35 -14 -27
c-18 -36 -53 -37 -53 -2 0 14 -4 25 -10 25 -5 0 -10 -11 -10 -24z" />
    <path d="M467 5393 c-11 -10 -8 -83 3 -83 6 0 10 20 10 45 0 46 -2 50 -13 38z" />
    <path d="M8670 5256 c0 -25 5 -46 10 -46 6 0 10 18 10 39 0 22 -4 43 -10 46
-6 4 -10 -12 -10 -39z" />
    <path d="M9620 5270 c0 -5 25 -10 56 -10 34 0 53 4 49 10 -3 6 -28 10 -56 10
-27 0 -49 -4 -49 -10z" />
    <path d="M16630 5270 c-34 -7 -34 -7 13 -9 26 0 47 4 47 9 0 11 -8 11 -60 0z" />
    <path d="M16770 5270 c0 -6 37 -10 93 -9 60 0 85 3 72 9 -28 12 -165 12 -165
0z" />
    <path d="M9823 5263 c15 -2 39 -2 55 0 15 2 2 4 -28 4 -30 0 -43 -2 -27 -4z" />
    <path d="M9993 5263 c15 -2 39 -2 55 0 15 2 2 4 -28 4 -30 0 -43 -2 -27 -4z" />
    <path d="M10163 5263 c15 -2 39 -2 55 0 15 2 2 4 -28 4 -30 0 -43 -2 -27 -4z" />
    <path d="M10320 5260 c20 -13 77 -13 85 0 4 6 -14 10 -47 10 -38 0 -49 -3 -38
-10z" />
    <path d="M10485 5260 c3 -5 24 -10 46 -10 21 0 39 5 39 10 0 6 -21 10 -46 10
-27 0 -43 -4 -39 -10z" />
    <path d="M10655 5260 c3 -5 24 -10 46 -10 21 0 39 5 39 10 0 6 -21 10 -46 10
-27 0 -43 -4 -39 -10z" />
    <path d="M10820 5260 c0 -5 20 -10 45 -10 25 0 45 5 45 10 0 6 -20 10 -45 10
-25 0 -45 -4 -45 -10z" />
    <path d="M10995 5260 c-4 -6 12 -10 39 -10 25 0 46 5 46 10 0 6 -18 10 -39 10
-22 0 -43 -4 -46 -10z" />
    <path d="M14770 5260 l-45 -7 48 -1 c26 -1 47 3 47 8 0 6 -1 9 -2 8 -2 0 -23
-4 -48 -8z" />
    <path d="M14905 5260 c-4 -6 12 -10 39 -10 25 0 46 5 46 10 0 6 -18 10 -39 10
-22 0 -43 -4 -46 -10z" />
    <path d="M15070 5260 c0 -5 20 -10 45 -10 25 0 45 5 45 10 0 6 -20 10 -45 10
-25 0 -45 -4 -45 -10z" />
    <path d="M15245 5260 c3 -5 24 -10 46 -10 21 0 39 5 39 10 0 6 -21 10 -46 10
-27 0 -43 -4 -39 -10z" />
    <path d="M15415 5260 c3 -5 24 -10 46 -10 21 0 39 5 39 10 0 6 -21 10 -46 10
-27 0 -43 -4 -39 -10z" />
    <path d="M15755 5260 c8 -13 65 -13 85 0 11 7 0 10 -38 10 -33 0 -51 -4 -47
-10z" />
    <path d="M16113 5263 c15 -2 39 -2 55 0 15 2 2 4 -28 4 -30 0 -43 -2 -27 -4z" />
    <path d="M16283 5263 c15 -2 39 -2 55 0 15 2 2 4 -28 4 -30 0 -43 -2 -27 -4z" />
    <path d="M16453 5263 c15 -2 37 -2 50 0 12 2 0 4 -28 4 -27 0 -38 -2 -22 -4z" />
    <path d="M9475 5245 l-30 -15 35 6 c19 4 42 10 50 15 27 15 -22 10 -55 -6z" />
    <path d="M11183 5253 c15 -2 39 -2 55 0 15 2 2 4 -28 4 -30 0 -43 -2 -27 -4z" />
    <path d="M11353 5253 c15 -2 39 -2 55 0 15 2 2 4 -28 4 -30 0 -43 -2 -27 -4z" />
    <path d="M11523 5253 c15 -2 39 -2 55 0 15 2 2 4 -28 4 -30 0 -43 -2 -27 -4z" />
    <path d="M11693 5253 c15 -2 39 -2 55 0 15 2 2 4 -28 4 -30 0 -43 -2 -27 -4z" />
    <path d="M11863 5253 c15 -2 39 -2 55 0 15 2 2 4 -28 4 -30 0 -43 -2 -27 -4z" />
    <path d="M12033 5253 c15 -2 39 -2 55 0 15 2 2 4 -28 4 -30 0 -43 -2 -27 -4z" />
    <path d="M12203 5253 c15 -2 39 -2 55 0 15 2 2 4 -28 4 -30 0 -43 -2 -27 -4z" />
    <path d="M12373 5253 c15 -2 39 -2 55 0 15 2 2 4 -28 4 -30 0 -43 -2 -27 -4z" />
    <path d="M12543 5253 c15 -2 39 -2 55 0 15 2 2 4 -28 4 -30 0 -43 -2 -27 -4z" />
    <path d="M12713 5253 c15 -2 39 -2 55 0 15 2 2 4 -28 4 -30 0 -43 -2 -27 -4z" />
    <path d="M12883 5253 c15 -2 39 -2 55 0 15 2 2 4 -28 4 -30 0 -43 -2 -27 -4z" />
    <path d="M13053 5253 c15 -2 39 -2 55 0 15 2 2 4 -28 4 -30 0 -43 -2 -27 -4z" />
    <path d="M13223 5253 c15 -2 39 -2 55 0 15 2 2 4 -28 4 -30 0 -43 -2 -27 -4z" />
    <path d="M13393 5253 c15 -2 39 -2 55 0 15 2 2 4 -28 4 -30 0 -43 -2 -27 -4z" />
    <path d="M13563 5253 c15 -2 39 -2 55 0 15 2 2 4 -28 4 -30 0 -43 -2 -27 -4z" />
    <path d="M13733 5253 c15 -2 39 -2 55 0 15 2 2 4 -28 4 -30 0 -43 -2 -27 -4z" />
    <path d="M13903 5253 c15 -2 39 -2 55 0 15 2 2 4 -28 4 -30 0 -43 -2 -27 -4z" />
    <path d="M14073 5253 c15 -2 39 -2 55 0 15 2 2 4 -28 4 -30 0 -43 -2 -27 -4z" />
    <path d="M14243 5253 c15 -2 39 -2 55 0 15 2 2 4 -28 4 -30 0 -43 -2 -27 -4z" />
    <path d="M14413 5253 c15 -2 37 -2 50 0 12 2 0 4 -28 4 -27 0 -38 -2 -22 -4z" />
    <path d="M14583 5253 c15 -2 37 -2 50 0 12 2 0 4 -28 4 -27 0 -38 -2 -22 -4z" />
    <path d="M17021 5247 c24 -19 79 -44 79 -37 0 11 -52 40 -71 40 -7 0 -10 -1
-8 -3z" />
    <path d="M467 5223 c-11 -10 -8 -81 3 -88 6 -4 10 13 10 44 0 52 -1 56 -13 44z" />
    <path d="M9357 5161 c-26 -45 -20 -58 8 -17 27 40 29 46 17 46 -4 0 -15 -13
-25 -29z" />
    <path d="M17151 5135 c0 -11 6 -33 14 -50 10 -23 13 -25 14 -10 0 11 -6 34
-14 50 -10 23 -13 25 -14 10z" />
    <path d="M8670 5085 c0 -25 5 -45 10 -45 6 0 10 20 10 45 0 25 -4 45 -10 45
-5 0 -10 -20 -10 -45z" />
    <path d="M9966 5068 c-9 -37 -7 -118 4 -118 6 0 10 27 10 60 0 65 6 70 55 48
42 -19 28 -34 -27 -29 -29 3 -21 -13 22 -48 41 -32 57 -29 20 4 -20 18 -20 18
2 29 12 6 23 16 25 23 5 15 -32 39 -73 48 -27 5 -32 3 -38 -17z" />
    <path d="M9733 5064 c-49 -21 -48 -32 2 -54 59 -25 51 -45 -14 -36 -42 5 -44
4 -27 -9 22 -17 64 -19 84 -6 23 14 9 45 -28 63 l-35 16 28 11 c16 6 32 11 37
11 5 0 12 5 15 10 9 14 -24 11 -62 -6z" />
    <path d="M9921 5043 c-8 -21 -19 -44 -25 -52 -9 -11 -12 -9 -17 15 l-6 29 -13
-27 c-16 -35 -30 -27 -30 18 0 19 -5 34 -10 34 -7 0 -8 -19 -4 -52 8 -63 9
-65 29 -48 12 10 18 10 31 -1 18 -15 24 -9 55 59 21 47 23 62 11 62 -4 0 -14
-17 -21 -37z" />
    <path d="M467 5053 c-11 -10 -8 -83 3 -83 6 0 10 20 10 45 0 46 -2 50 -13 38z" />
    <path d="M9318 5034 c-5 -4 -8 -28 -8 -53 0 -32 3 -42 11 -34 5 5 9 29 7 53
-2 23 -6 38 -10 34z" />
    <path d="M17170 4926 c0 -30 5 -58 10 -61 6 -4 10 17 10 54 0 34 -4 61 -10 61
-5 0 -10 -24 -10 -54z" />
    <path d="M8670 4916 c0 -25 5 -46 10 -46 6 0 10 18 10 39 0 22 -4 43 -10 46
-6 4 -10 -12 -10 -39z" />
    <path d="M467 4883 c-11 -10 -8 -81 3 -88 6 -4 10 13 10 44 0 52 -1 56 -13 44z" />
    <path d="M9310 4821 c0 -22 5 -43 10 -46 6 -4 10 12 10 39 0 25 -4 46 -10 46
-5 0 -10 -18 -10 -39z" />
    <path d="M8670 4746 c0 -25 5 -46 10 -46 6 0 10 18 10 39 0 22 -4 43 -10 46
-6 4 -10 -12 -10 -39z" />
    <path d="M17177 4783 c-11 -10 -8 -81 3 -88 6 -4 10 13 10 44 0 52 -1 56 -13
44z" />
    <path d="M467 4713 c-11 -10 -8 -83 3 -83 6 0 10 20 10 45 0 46 -2 50 -13 38z" />
    <path d="M9317 4693 c-11 -10 -8 -81 3 -88 6 -4 10 13 10 44 0 52 -1 56 -13
44z" />
    <path d="M15534 4615 c-19 -45 -18 -68 4 -95 15 -19 21 -20 44 -10 46 22 64
93 30 123 -31 28 -61 21 -78 -18z m74 -26 c4 -44 -28 -80 -53 -59 -20 17 -19
59 2 82 25 28 48 19 51 -23z" />
    <path d="M15671 4619 c-15 -45 -14 -85 5 -103 20 -21 28 -20 58 7 37 31 44 79
17 106 -32 32 -67 28 -80 -10z m73 -11 c22 -35 -28 -108 -55 -81 -15 15 -14
70 2 89 15 18 38 15 53 -8z" />
    <path d="M15403 4623 c-27 -10 -11 -21 22 -16 37 6 43 -3 25 -38 -6 -10 -19
-19 -29 -19 -21 0 -44 -23 -34 -33 10 -11 51 -8 58 3 4 7 13 6 26 -1 29 -15
37 -2 11 17 -18 12 -20 18 -10 39 18 41 -21 68 -69 48z" />
    <path d="M8670 4576 c0 -25 5 -46 10 -46 6 0 10 18 10 39 0 22 -4 43 -10 46
-6 4 -10 -12 -10 -39z" />
    <path d="M17183 4570 c0 -30 2 -43 4 -27 2 15 2 39 0 55 -2 15 -4 2 -4 -28z" />
    <path d="M467 4543 c-11 -10 -8 -83 3 -83 6 0 10 20 10 45 0 46 -2 50 -13 38z" />
    <path d="M9310 4481 c0 -22 5 -43 10 -46 6 -4 10 12 10 39 0 25 -4 46 -10 46
-5 0 -10 -18 -10 -39z" />
    <path d="M8670 4406 c0 -25 5 -46 10 -46 6 0 10 18 10 39 0 22 -4 43 -10 46
-6 4 -10 -12 -10 -39z" />
    <path d="M17183 4400 c0 -30 2 -43 4 -27 2 15 2 39 0 55 -2 15 -4 2 -4 -28z" />
    <path d="M15574 4148 c14 -576 18 -798 13 -798 -2 0 -12 21 -22 48 -31 79 -75
175 -80 170 -6 -6 100 -273 116 -292 9 -11 100 274 92 287 -4 6 -14 -16 -24
-49 -10 -32 -26 -83 -37 -112 l-19 -52 -6 102 c-4 57 -8 225 -9 373 -4 445 -8
565 -20 565 -7 0 -8 -76 -4 -242z" />
    <path d="M467 4373 c-11 -10 -8 -83 3 -83 6 0 10 20 10 45 0 46 -2 50 -13 38z" />
    <path d="M9310 4311 c0 -22 5 -43 10 -46 6 -4 10 12 10 39 0 25 -4 46 -10 46
-5 0 -10 -18 -10 -39z" />
    <path d="M8670 4236 c0 -25 5 -46 10 -46 6 0 10 18 10 39 0 22 -4 43 -10 46
-6 4 -10 -12 -10 -39z" />
    <path d="M17183 4230 c0 -30 2 -43 4 -27 2 15 2 39 0 55 -2 15 -4 2 -4 -28z" />
    <path d="M467 4203 c-11 -10 -8 -83 3 -83 6 0 10 20 10 45 0 46 -2 50 -13 38z" />
    <path d="M9310 4141 c0 -22 5 -43 10 -46 6 -4 10 12 10 39 0 25 -4 46 -10 46
-5 0 -10 -18 -10 -39z" />
    <path d="M8670 4066 c0 -25 5 -46 10 -46 6 0 10 18 10 39 0 22 -4 43 -10 46
-6 4 -10 -12 -10 -39z" />
    <path d="M17183 4065 c0 -27 2 -38 4 -22 2 15 2 37 0 50 -2 12 -4 0 -4 -28z" />
    <path d="M460 3996 c0 -25 5 -46 10 -46 6 0 10 18 10 39 0 22 -4 43 -10 46 -6
4 -10 -12 -10 -39z" />
    <path d="M9310 3971 c0 -22 5 -43 10 -46 6 -4 10 12 10 39 0 25 -4 46 -10 46
-5 0 -10 -18 -10 -39z" />
    <path d="M8670 3896 c0 -25 5 -46 10 -46 6 0 10 18 10 39 0 22 -4 43 -10 46
-6 4 -10 -12 -10 -39z" />
    <path d="M17183 3895 c0 -27 2 -38 4 -22 2 15 2 37 0 50 -2 12 -4 0 -4 -28z" />
    <path d="M460 3825 c0 -25 5 -45 10 -45 6 0 10 20 10 45 0 25 -4 45 -10 45 -5
0 -10 -20 -10 -45z" />
    <path d="M9310 3801 c0 -22 5 -43 10 -46 6 -4 10 12 10 39 0 25 -4 46 -10 46
-5 0 -10 -18 -10 -39z" />
    <path d="M8670 3726 c0 -25 5 -46 10 -46 6 0 10 18 10 39 0 22 -4 43 -10 46
-6 4 -10 -12 -10 -39z" />
    <path d="M17176 3738 c-5 -21 -5 -46 0 -55 6 -15 8 -13 12 10 2 15 2 39 0 55
-4 25 -5 24 -12 -10z" />
    <path d="M460 3656 c0 -25 5 -46 10 -46 6 0 10 18 10 39 0 22 -4 43 -10 46 -6
4 -10 -12 -10 -39z" />
    <path d="M9310 3631 c0 -22 5 -43 10 -46 6 -4 10 12 10 39 0 25 -4 46 -10 46
-5 0 -10 -18 -10 -39z" />
    <path d="M8670 3556 c0 -25 5 -46 10 -46 6 0 10 18 10 39 0 22 -4 43 -10 46
-6 4 -10 -12 -10 -39z" />
    <path d="M17177 3593 c-11 -10 -8 -81 3 -88 6 -4 10 13 10 44 0 52 -1 56 -13
44z" />
    <path d="M460 3486 c0 -25 5 -46 10 -46 6 0 10 18 10 39 0 22 -4 43 -10 46 -6
4 -10 -12 -10 -39z" />
    <path d="M9317 3503 c-11 -10 -8 -81 3 -88 6 -4 10 13 10 44 0 52 -1 56 -13
44z" />
    <path d="M8670 3386 c0 -25 5 -46 10 -46 6 0 10 18 10 39 0 22 -4 43 -10 46
-6 4 -10 -12 -10 -39z" />
    <path d="M17177 3423 c-11 -10 -8 -83 3 -83 6 0 10 20 10 45 0 46 -2 50 -13
38z" />
    <path d="M460 3310 c0 -32 4 -49 10 -45 6 3 10 24 10 45 0 21 -4 42 -10 45 -6
4 -10 -13 -10 -45z" />
    <path d="M9310 3285 c0 -25 5 -45 10 -45 6 0 10 20 10 45 0 25 -4 45 -10 45
-5 0 -10 -20 -10 -45z" />
    <path d="M8670 3216 c0 -25 5 -46 10 -46 6 0 10 18 10 39 0 22 -4 43 -10 46
-6 4 -10 -12 -10 -39z" />
    <path d="M17177 3253 c-11 -10 -8 -83 3 -83 6 0 10 20 10 45 0 46 -2 50 -13
38z" />
    <path d="M463 3140 c0 -30 2 -43 4 -27 2 15 2 39 0 55 -2 15 -4 2 -4 -28z" />
    <path d="M9310 3115 c0 -25 5 -45 10 -45 6 0 10 20 10 45 0 25 -4 45 -10 45
-5 0 -10 -20 -10 -45z" />
    <path d="M13590 2945 l-4 -170 -6 165 -6 165 -2 -157 c-2 -132 -5 -158 -18
-166 -15 -8 -15 -10 0 -15 15 -6 17 -36 16 -304 -1 -164 0 -325 2 -358 1 -33
5 104 8 305 5 336 5 322 6 -185 0 -302 -3 -503 -6 -445 -4 64 -7 88 -10 60 -2
-25 -3 -51 -3 -59 2 -32 -16 10 -32 77 -9 39 -21 72 -26 72 -15 0 -11 -22 21
-122 17 -52 31 -113 33 -134 l2 -39 -405 0 -405 0 -58 -29 c-44 -21 -66 -40
-88 -74 -53 -85 -54 -89 -54 -487 l0 -370 26 -50 c32 -62 93 -110 159 -124 36
-8 809 -11 2649 -11 2919 0 2669 -7 2747 75 76 79 79 97 79 520 0 399 -2 419
-53 471 -15 15 -52 39 -82 53 l-55 26 -1087 -4 -1088 -3 0 96 c0 124 -18 127
-22 4 l-3 -93 -1125 -2 c-619 -1 -1119 1 -1112 4 6 2 12 9 12 14 0 6 25 64 56
130 30 66 54 128 52 137 -2 9 -25 -34 -52 -95 -27 -62 -50 -113 -52 -113 -2 0
-4 238 -4 529 l0 530 23 4 22 4 -22 2 c-22 1 -23 3 -26 169 l-3 167 -4 -170z
m1722 -1335 l518 0 -1 -132 c-1 -163 -1 -161 11 -153 6 4 10 63 10 144 l0 138
662 6 c1130 12 1476 10 1539 -9 64 -19 119 -71 137 -130 16 -54 23 -378 14
-599 -8 -166 -11 -184 -34 -230 -31 -60 -70 -98 -120 -119 -33 -14 -312 -16
-2670 -16 -2526 0 -2635 1 -2673 19 -51 23 -111 89 -125 138 -8 26 -10 153 -8
403 l3 365 28 57 c16 32 42 67 59 79 71 51 39 50 1123 44 556 -3 1243 -5 1527
-5z" />
    <path d="M15000 1290 c-120 -3 -193 -9 -207 -17 -39 -23 -48 -74 -48 -268 0
-152 3 -186 18 -215 36 -74 -2 -70 739 -70 732 0 704 -2 752 63 20 27 21 41
20 222 -1 276 0 276 -258 286 -189 8 -729 8 -1016 -1z m1128 -19 c60 -6 77
-11 100 -34 l27 -27 3 -187 c3 -201 -2 -229 -46 -264 -23 -18 -40 -19 -212
-19 -103 1 -200 -1 -216 -5 -23 -4 -25 -3 -9 4 13 6 -48 9 -180 8 -160 -1
-179 -2 -95 -7 58 -3 -66 -4 -275 -2 -223 2 -391 8 -407 14 -49 18 -58 57 -58
253 0 233 11 255 129 266 96 9 1153 9 1239 0z m-410 -538 c-21 -2 -55 -2 -75
0 -21 2 -4 4 37 4 41 0 58 -2 38 -4z" />
    <path d="M15202 1028 c3 -70 4 -73 29 -76 33 -4 65 24 49 43 -6 8 -24 15 -38
17 -25 3 -27 6 -24 46 2 26 -1 42 -8 42 -7 0 -10 -24 -8 -72z m63 -38 c8 -13
-20 -24 -41 -16 -20 8 -9 26 16 26 10 0 22 -5 25 -10z" />
    <path d="M15440 1068 c0 -9 -9 -20 -20 -23 -11 -3 -20 -11 -20 -16 0 -6 9 -8
19 -4 17 5 20 0 23 -37 2 -30 8 -44 19 -46 18 -3 54 27 43 37 -4 3 -9 0 -11
-6 -3 -7 -11 -13 -19 -13 -10 0 -14 12 -14 40 0 34 3 40 23 41 20 1 20 2 2 6
-11 3 -26 12 -32 21 -12 14 -13 14 -13 0z" />
    <path d="M15550 1066 c0 -8 -9 -18 -20 -21 -11 -3 -20 -11 -20 -16 0 -6 9 -7
20 -4 17 5 20 2 20 -27 0 -44 13 -62 38 -54 21 7 39 36 22 36 -6 0 -10 -4 -10
-10 0 -5 -7 -10 -15 -10 -11 0 -15 11 -15 39 0 33 4 40 23 44 l22 4 -22 2
c-13 0 -23 8 -23 16 0 8 -4 15 -10 15 -5 0 -10 -6 -10 -14z" />
    <path d="M15653 1023 c-7 -2 -13 -18 -13 -34 0 -37 38 -49 75 -25 31 20 31 30
3 50 -23 16 -42 19 -65 9z m62 -33 c0 -16 -28 -25 -52 -16 -12 5 -13 9 -3 22
16 18 55 15 55 -6z" />
    <path d="M15785 1020 c-3 -5 -12 -7 -20 -3 -11 4 -15 -3 -15 -28 l0 -32 23 21
c29 27 37 28 37 2 0 -11 5 -20 10 -20 9 0 5 42 -7 63 -6 10 -21 9 -28 -3z" />
    <path d="M15300 996 c0 -31 15 -41 60 -42 35 0 35 1 31 35 l-4 35 -14 -27
c-18 -36 -53 -37 -53 -2 0 14 -4 25 -10 25 -5 0 -10 -11 -10 -24z" />
    <path d="M13560 1101 c-25 -7 -25 -7 -3 -13 19 -5 21 -11 16 -44 -4 -22 -13
-44 -22 -51 -15 -11 -15 -12 0 -13 9 0 32 3 50 7 30 6 31 7 11 12 -13 3 -23 9
-23 14 1 4 1 23 1 42 0 28 4 35 20 35 11 0 20 5 20 10 0 11 -32 12 -70 1z" />
    <path d="M13406 1078 c-14 -54 7 -98 46 -98 42 0 96 86 70 112 -6 6 -12 -5
-16 -30 -7 -46 -25 -65 -58 -60 -20 3 -23 8 -22 51 0 50 -10 62 -20 25z" />
    <path d="M8670 3046 c0 -25 5 -46 10 -46 6 0 10 18 10 39 0 22 -4 43 -10 46
-6 4 -10 -12 -10 -39z" />
    <path d="M17168 3044 c-4 -56 7 -68 16 -16 8 51 8 62 -3 62 -5 0 -11 -21 -13
-46z" />
    <path d="M460 2970 c0 -32 4 -49 10 -45 6 3 10 24 10 45 0 21 -4 42 -10 45 -6
4 -10 -13 -10 -45z" />
    <path d="M9332 2958 c12 -35 28 -59 28 -41 0 20 -22 73 -30 73 -5 0 -4 -15 2
-32z" />
    <path d="M8670 2876 c0 -25 5 -46 10 -46 6 0 10 18 10 39 0 22 -4 43 -10 46
-6 4 -10 -12 -10 -39z" />
    <path d="M17124 2892 c-31 -42 -36 -52 -25 -52 11 0 56 69 49 75 -2 3 -13 -8
-24 -23z" />
    <path d="M460 2800 c0 -32 4 -49 10 -45 6 3 10 24 10 45 0 21 -4 42 -10 45 -6
4 -10 -13 -10 -45z" />
    <path d="M9400 2843 c0 -10 62 -53 76 -53 5 0 -2 9 -16 21 -35 28 -60 41 -60
32z" />
    <path d="M16975 2784 l-30 -14 35 5 c19 3 39 10 44 15 15 15 -14 12 -49 -6z" />
    <path d="M11170 2770 c0 -5 20 -10 45 -10 25 0 45 5 45 10 0 6 -20 10 -45 10
-25 0 -45 -4 -45 -10z" />
    <path d="M11340 2770 c0 -5 20 -10 45 -10 25 0 45 5 45 10 0 6 -20 10 -45 10
-25 0 -45 -4 -45 -10z" />
    <path d="M11510 2770 c0 -5 18 -10 39 -10 22 0 43 5 46 10 4 6 -12 10 -39 10
-25 0 -46 -4 -46 -10z" />
    <path d="M11680 2770 c0 -5 18 -10 39 -10 22 0 43 5 46 10 4 6 -12 10 -39 10
-25 0 -46 -4 -46 -10z" />
    <path d="M11850 2770 c0 -5 18 -10 39 -10 22 0 43 5 46 10 4 6 -12 10 -39 10
-25 0 -46 -4 -46 -10z" />
    <path d="M12020 2770 c0 -5 18 -10 39 -10 22 0 43 5 46 10 4 6 -12 10 -39 10
-25 0 -46 -4 -46 -10z" />
    <path d="M12190 2770 c0 -5 18 -10 39 -10 22 0 43 5 46 10 4 6 -12 10 -39 10
-25 0 -46 -4 -46 -10z" />
    <path d="M12355 2770 c3 -5 24 -10 45 -10 21 0 42 5 45 10 4 6 -13 10 -45 10
-32 0 -49 -4 -45 -10z" />
    <path d="M12543 2773 c15 -2 39 -2 55 0 15 2 2 4 -28 4 -30 0 -43 -2 -27 -4z" />
    <path d="M12713 2773 c15 -2 39 -2 55 0 15 2 2 4 -28 4 -30 0 -43 -2 -27 -4z" />
    <path d="M12883 2773 c15 -2 39 -2 55 0 15 2 2 4 -28 4 -30 0 -43 -2 -27 -4z" />
    <path d="M13053 2773 c15 -2 39 -2 55 0 15 2 2 4 -28 4 -30 0 -43 -2 -27 -4z" />
    <path d="M13223 2773 c15 -2 39 -2 55 0 15 2 2 4 -28 4 -30 0 -43 -2 -27 -4z" />
    <path d="M13393 2773 c15 -2 39 -2 55 0 15 2 2 4 -28 4 -30 0 -43 -2 -27 -4z" />
    <path d="M13733 2773 c15 -2 39 -2 55 0 15 2 2 4 -28 4 -30 0 -43 -2 -27 -4z" />
    <path d="M13903 2773 c15 -2 39 -2 55 0 15 2 2 4 -28 4 -30 0 -43 -2 -27 -4z" />
    <path d="M14073 2773 c15 -2 39 -2 55 0 15 2 2 4 -28 4 -30 0 -43 -2 -27 -4z" />
    <path d="M14243 2773 c15 -2 39 -2 55 0 15 2 2 4 -28 4 -30 0 -43 -2 -27 -4z" />
    <path d="M14413 2773 c15 -2 39 -2 55 0 15 2 2 4 -28 4 -30 0 -43 -2 -27 -4z" />
    <path d="M14583 2773 c15 -2 39 -2 55 0 15 2 2 4 -28 4 -30 0 -43 -2 -27 -4z" />
    <path d="M14768 2767 c31 -7 46 -7 54 1 9 9 -1 12 -42 11 l-55 -1 43 -11z" />
    <path d="M14905 2770 c3 -5 24 -10 45 -10 21 0 42 5 45 10 4 6 -13 10 -45 10
-32 0 -49 -4 -45 -10z" />
    <path d="M15075 2770 c3 -5 24 -10 45 -10 21 0 42 5 45 10 4 6 -13 10 -45 10
-32 0 -49 -4 -45 -10z" />
    <path d="M15245 2770 c3 -5 24 -10 45 -10 21 0 42 5 45 10 4 6 -13 10 -45 10
-32 0 -49 -4 -45 -10z" />
    <path d="M9570 2760 c36 -12 148 -12 155 0 4 6 -27 10 -87 9 -62 -1 -85 -4
-68 -9z" />
    <path d="M9810 2760 c0 -5 18 -10 39 -10 22 0 43 5 46 10 4 6 -12 10 -39 10
-25 0 -46 -4 -46 -10z" />
    <path d="M9975 2760 c3 -5 24 -10 45 -10 21 0 42 5 45 10 4 6 -13 10 -45 10
-32 0 -49 -4 -45 -10z" />
    <path d="M10145 2760 c3 -5 24 -10 45 -10 21 0 42 5 45 10 4 6 -13 10 -45 10
-32 0 -49 -4 -45 -10z" />
    <path d="M10333 2763 c15 -2 39 -2 55 0 15 2 2 4 -28 4 -30 0 -43 -2 -27 -4z" />
    <path d="M10503 2763 c15 -2 39 -2 55 0 15 2 2 4 -28 4 -30 0 -43 -2 -27 -4z" />
    <path d="M10673 2763 c15 -2 39 -2 55 0 15 2 2 4 -28 4 -30 0 -43 -2 -27 -4z" />
    <path d="M10853 2763 c15 -2 37 -2 50 0 12 2 0 4 -28 4 -27 0 -38 -2 -22 -4z" />
    <path d="M11023 2763 c15 -2 37 -2 50 0 12 2 0 4 -28 4 -27 0 -38 -2 -22 -4z" />
    <path d="M16283 2763 c15 -2 39 -2 55 0 15 2 2 4 -28 4 -30 0 -43 -2 -27 -4z" />
    <path d="M16469 2758 c30 -7 47 -6 54 1 8 8 -4 11 -43 10 l-55 -1 44 -10z" />
    <path d="M16605 2760 c3 -5 24 -10 45 -10 21 0 42 5 45 10 4 6 -13 10 -45 10
-32 0 -49 -4 -45 -10z" />
    <path d="M16775 2760 c3 -5 26 -10 51 -10 24 0 44 5 44 10 0 6 -23 10 -51 10
-31 0 -48 -4 -44 -10z" />
    <path d="M8670 2700 c0 -32 4 -49 10 -45 6 3 10 24 10 45 0 21 -4 42 -10 45
-6 4 -10 -13 -10 -45z" />
    <path d="M460 2630 c0 -32 4 -49 10 -45 6 3 10 24 10 45 0 21 -4 42 -10 45 -6
4 -10 -13 -10 -45z" />
    <path d="M8670 2536 c0 -25 5 -46 10 -46 6 0 10 18 10 39 0 22 -4 43 -10 46
-6 4 -10 -12 -10 -39z" />
    <path d="M460 2461 c0 -28 5 -51 10 -51 6 0 10 20 10 44 0 25 -4 48 -10 51 -6
4 -10 -13 -10 -44z" />
    <path d="M13720 2440 c0 -5 6 -10 14 -10 10 0 15 -16 18 -55 3 -48 1 -55 -17
-58 -11 -2 -4 -5 16 -6 44 -1 96 16 103 34 7 20 -30 62 -75 85 -43 22 -59 25
-59 10z m92 -50 c32 -29 32 -31 14 -45 -30 -22 -56 -19 -57 8 -1 12 -3 32 -4
45 -3 30 8 28 47 -8z" />
    <path d="M14030 2425 c0 -9 -10 -20 -22 -25 -22 -8 -19 -12 12 -14 10 -1 16
-14 18 -39 2 -22 10 -41 18 -44 18 -7 44 14 44 35 0 13 -3 12 -14 -4 -19 -25
-39 -7 -34 32 2 20 10 30 28 35 l25 7 -27 1 c-18 1 -28 7 -28 16 0 8 -4 15
-10 15 -5 0 -10 -7 -10 -15z" />
    <path d="M8670 2374 c0 -27 4 -43 10 -39 6 3 10 24 10 46 0 21 -4 39 -10 39
-5 0 -10 -21 -10 -46z" />
    <path d="M13890 2372 c-17 -13 -21 -24 -16 -40 8 -26 32 -28 56 -7 15 14 18
14 30 0 13 -16 30 -20 30 -7 0 11 -57 72 -68 72 -6 0 -20 -8 -32 -18z m40 -22
c-12 -22 -40 -27 -40 -7 0 19 10 27 32 27 16 0 17 -3 8 -20z" />
    <path d="M14142 2374 c-46 -32 -15 -81 32 -51 21 14 25 14 39 -1 21 -20 34 -9
16 13 -51 61 -54 63 -87 39z m38 -18 c0 -19 -17 -29 -37 -22 -12 5 -13 9 -3
21 16 19 40 19 40 1z" />
    <path d="M470 2316 c0 -19 29 -80 35 -74 5 5 -19 75 -28 84 -4 4 -7 0 -7 -10z" />
    <path d="M8635 2227 c-27 -44 -28 -47 -17 -47 10 0 48 67 41 74 -2 3 -13 -10
-24 -27z" />
    <path d="M13750 2191 c-22 -6 -25 -13 -28 -60 -2 -30 2 -59 7 -64 8 -8 11 -3
11 16 0 22 5 27 35 33 51 9 55 26 5 18 -40 -7 -42 -6 -38 17 2 20 12 26 53 36
45 10 46 11 15 11 -19 0 -46 -3 -60 -7z" />
    <path d="M550 2181 c0 -9 61 -51 74 -51 17 0 2 17 -34 38 -22 12 -40 18 -40
13z" />
    <path d="M13970 2176 c0 -8 -9 -18 -20 -21 -11 -3 -20 -11 -20 -16 0 -6 9 -7
20 -4 17 5 20 2 20 -27 0 -44 13 -62 38 -54 21 7 39 36 22 36 -6 0 -10 -4 -10
-10 0 -5 -7 -10 -15 -10 -11 0 -15 11 -15 39 0 33 4 40 23 44 l22 4 -22 2
c-13 0 -23 8 -23 16 0 8 -4 15 -10 15 -5 0 -10 -6 -10 -14z" />
    <path d="M14162 2115 c-1 -60 -1 -60 17 -37 24 27 38 28 46 2 9 -28 24 -25 18
3 -10 41 -23 49 -49 32 -22 -14 -23 -14 -27 23 -2 25 -4 18 -5 -23z" />
    <path d="M14370 2131 c-13 -24 -13 -58 -1 -66 5 -3 11 9 13 27 3 31 5 33 38
31 33 -1 34 0 16 13 -27 20 -53 18 -66 -5z" />
    <path d="M8515 2128 c-16 -5 -36 -12 -44 -14 -8 -2 -11 -7 -8 -10 8 -8 87 16
87 26 0 6 -1 10 -2 9 -2 0 -16 -5 -33 -11z" />
    <path d="M13851 2114 c-26 -33 -26 -39 0 -65 14 -14 28 -19 42 -15 12 3 28 6
35 6 6 0 12 4 12 10 0 5 -13 7 -30 4 -29 -6 -60 8 -60 27 0 4 15 9 33 11 24 2
32 8 32 23 0 31 -39 31 -64 -1z m49 -4 c0 -5 -7 -10 -15 -10 -8 0 -15 5 -15
10 0 6 7 10 15 10 8 0 15 -4 15 -10z" />
    <path d="M14066 2121 c-14 -15 -15 -23 -6 -40 6 -12 16 -21 23 -21 7 0 22 -3
35 -6 35 -10 26 11 -10 21 -42 13 -45 41 -5 38 18 -1 27 2 24 10 -6 20 -42 19
-61 -2z" />
    <path d="M14283 2125 c-33 -23 -31 -72 3 -85 27 -11 74 -4 74 11 0 5 -13 6
-30 3 -29 -6 -60 8 -60 27 0 5 16 9 36 9 31 0 35 3 32 22 -4 28 -26 33 -55 13z
m42 -15 c-3 -5 -13 -10 -21 -10 -8 0 -14 5 -14 10 0 6 9 10 21 10 11 0 17 -4
14 -10z" />
    <path d="M710 2109 c0 -10 58 -19 123 -19 91 0 57 18 -41 22 -45 2 -82 0 -82
-3z" />
    <path d="M970 2100 c0 -5 21 -10 47 -10 55 0 54 5 -4 14 -27 4 -43 2 -43 -4z" />
    <path d="M8140 2100 l-45 -7 53 -1 c33 -1 51 2 47 8 -3 6 -7 9 -8 8 -1 0 -22
-4 -47 -8z" />
    <path d="M8275 2100 c-4 -6 17 -10 55 -10 38 0 59 4 55 10 -3 6 -28 10 -55 10
-27 0 -52 -4 -55 -10z" />
    <path d="M1153 2093 c15 -2 39 -2 55 0 15 2 2 4 -28 4 -30 0 -43 -2 -27 -4z" />
    <path d="M1323 2093 c15 -2 39 -2 55 0 15 2 2 4 -28 4 -30 0 -43 -2 -27 -4z" />
    <path d="M1493 2093 c15 -2 39 -2 55 0 15 2 2 4 -28 4 -30 0 -43 -2 -27 -4z" />
    <path d="M1663 2093 c15 -2 39 -2 55 0 15 2 2 4 -28 4 -30 0 -43 -2 -27 -4z" />
    <path d="M1833 2093 c15 -2 39 -2 55 0 15 2 2 4 -28 4 -30 0 -43 -2 -27 -4z" />
    <path d="M1995 2090 c3 -5 21 -10 40 -10 19 0 37 5 40 10 4 6 -12 10 -40 10
-28 0 -44 -4 -40 -10z" />
    <path d="M2160 2090 c0 -5 18 -10 39 -10 22 0 43 5 46 10 4 6 -12 10 -39 10
-25 0 -46 -4 -46 -10z" />
    <path d="M2330 2090 c0 -5 20 -10 45 -10 25 0 45 5 45 10 0 6 -20 10 -45 10
-25 0 -45 -4 -45 -10z" />
    <path d="M2500 2090 c0 -5 20 -10 45 -10 25 0 45 5 45 10 0 6 -20 10 -45 10
-25 0 -45 -4 -45 -10z" />
    <path d="M2670 2090 c0 -5 18 -10 39 -10 22 0 43 5 46 10 4 6 -12 10 -39 10
-25 0 -46 -4 -46 -10z" />
    <path d="M2840 2090 c0 -5 20 -10 45 -10 25 0 45 5 45 10 0 6 -20 10 -45 10
-25 0 -45 -4 -45 -10z" />
    <path d="M3010 2090 c0 -5 20 -10 45 -10 25 0 45 5 45 10 0 6 -20 10 -45 10
-25 0 -45 -4 -45 -10z" />
    <path d="M3180 2090 c0 -5 20 -10 45 -10 25 0 45 5 45 10 0 6 -20 10 -45 10
-25 0 -45 -4 -45 -10z" />
    <path d="M6085 2090 c-15 -6 -8 -9 28 -9 30 -1 46 3 42 9 -7 12 -42 12 -70 0z" />
    <path d="M6240 2090 c0 -5 21 -10 46 -10 27 0 43 4 39 10 -3 6 -24 10 -46 10
-21 0 -39 -4 -39 -10z" />
    <path d="M6410 2090 c0 -5 20 -10 45 -10 25 0 45 5 45 10 0 6 -20 10 -45 10
-25 0 -45 -4 -45 -10z" />
    <path d="M6580 2090 c0 -5 18 -10 39 -10 22 0 43 5 46 10 4 6 -12 10 -39 10
-25 0 -46 -4 -46 -10z" />
    <path d="M6750 2090 c0 -5 18 -10 39 -10 22 0 43 5 46 10 4 6 -12 10 -39 10
-25 0 -46 -4 -46 -10z" />
    <path d="M6920 2090 c0 -5 18 -10 39 -10 22 0 43 5 46 10 4 6 -12 10 -39 10
-25 0 -46 -4 -46 -10z" />
    <path d="M7090 2090 c0 -5 18 -10 39 -10 22 0 43 5 46 10 4 6 -12 10 -39 10
-25 0 -46 -4 -46 -10z" />
    <path d="M7255 2090 c3 -5 24 -10 45 -10 21 0 42 5 45 10 4 6 -13 10 -45 10
-32 0 -49 -4 -45 -10z" />
    <path d="M7443 2093 c15 -2 39 -2 55 0 15 2 2 4 -28 4 -30 0 -43 -2 -27 -4z" />
    <path d="M7613 2093 c15 -2 39 -2 55 0 15 2 2 4 -28 4 -30 0 -43 -2 -27 -4z" />
    <path d="M7783 2093 c15 -2 39 -2 55 0 15 2 2 4 -28 4 -30 0 -43 -2 -27 -4z" />
    <path d="M7953 2093 c15 -2 39 -2 55 0 15 2 2 4 -28 4 -30 0 -43 -2 -27 -4z" />
    <path d="M3373 2083 c15 -2 37 -2 50 0 12 2 0 4 -28 4 -27 0 -38 -2 -22 -4z" />
    <path d="M3543 2083 c15 -2 37 -2 50 0 12 2 0 4 -28 4 -27 0 -38 -2 -22 -4z" />
    <path d="M3703 2083 c15 -2 39 -2 55 0 15 2 2 4 -28 4 -30 0 -43 -2 -27 -4z" />
    <path d="M3883 2083 c15 -2 37 -2 50 0 12 2 0 4 -28 4 -27 0 -38 -2 -22 -4z" />
    <path d="M4223 2083 c15 -2 37 -2 50 0 12 2 0 4 -28 4 -27 0 -38 -2 -22 -4z" />
    <path d="M4393 2083 c15 -2 37 -2 50 0 12 2 0 4 -28 4 -27 0 -38 -2 -22 -4z" />
    <path d="M4553 2083 c15 -2 39 -2 55 0 15 2 2 4 -28 4 -30 0 -43 -2 -27 -4z" />
    <path d="M4723 2083 c15 -2 39 -2 55 0 15 2 2 4 -28 4 -30 0 -43 -2 -27 -4z" />
    <path d="M4893 2083 c15 -2 39 -2 55 0 15 2 2 4 -28 4 -30 0 -43 -2 -27 -4z" />
    <path d="M5073 2083 c15 -2 37 -2 50 0 12 2 0 4 -28 4 -27 0 -38 -2 -22 -4z" />
    <path d="M5243 2083 c15 -2 37 -2 50 0 12 2 0 4 -28 4 -27 0 -38 -2 -22 -4z" />
    <path d="M5413 2083 c15 -2 37 -2 50 0 12 2 0 4 -28 4 -27 0 -38 -2 -22 -4z" />
    <path d="M5573 2083 c15 -2 39 -2 55 0 15 2 2 4 -28 4 -30 0 -43 -2 -27 -4z" />
    <path d="M5743 2083 c15 -2 39 -2 55 0 15 2 2 4 -28 4 -30 0 -43 -2 -27 -4z" />
    <path d="M5923 2083 c15 -2 37 -2 50 0 12 2 0 4 -28 4 -27 0 -38 -2 -22 -4z" />
    <path d="M15630 2054 c-6 -16 -29 -50 -51 -76 -40 -48 -42 -61 -5 -33 26 20
66 19 66 0 0 -8 5 -15 10 -15 6 0 10 9 10 20 0 11 5 20 10 20 6 0 10 -4 10 -9
0 -8 52 -31 71 -31 22 0 6 17 -23 25 -41 12 -45 40 -5 40 31 -1 31 18 -1 23
-13 2 -26 -5 -34 -17 -23 -37 -40 -26 -37 24 4 54 -7 68 -21 29z m10 -59 c0
-8 -2 -15 -4 -15 -2 0 -12 -3 -21 -7 -15 -5 -16 -3 -6 15 13 25 31 29 31 7z" />
    <path d="M15800 2055 c0 -9 -10 -20 -22 -25 -22 -8 -19 -12 12 -14 10 -1 17
-15 20 -41 4 -33 9 -40 27 -40 12 0 25 -4 29 -8 15 -15 19 -6 16 38 -3 30 -9
45 -18 45 -13 0 -19 -18 -15 -49 2 -7 -4 -11 -11 -9 -7 3 -13 19 -13 38 0 28
5 35 25 41 l25 7 -27 1 c-18 1 -28 7 -28 16 0 8 -4 15 -10 15 -5 0 -10 -7 -10
-15z" />
    <path d="M15890 2051 c0 -5 7 -11 14 -14 10 -4 13 -1 9 9 -6 15 -23 19 -23 5z" />
    <path d="M15953 2013 c-7 -2 -13 -18 -13 -34 0 -37 38 -49 75 -25 31 20 31 30
3 50 -23 16 -42 19 -65 9z m64 -30 c7 -19 -35 -37 -53 -22 -11 9 -12 15 -2 26
13 16 50 14 55 -4z" />
    <path d="M16085 2010 c-4 -6 -13 -9 -21 -6 -10 4 -14 -3 -14 -27 l1 -32 18 23
c24 28 29 28 42 -4 13 -36 19 -27 10 15 -7 36 -24 50 -36 31z" />
    <path d="M15901 1971 c-1 -24 2 -32 9 -25 7 7 7 19 1 35 -9 23 -10 22 -10 -10z" />
    <path d="M13560 1900 c0 -5 5 -10 10 -10 6 0 10 5 10 10 0 6 -4 10 -10 10 -5
0 -10 -4 -10 -10z" />
  </g>
</svg>
